<?xml version="1.0" encoding="utf-8" standalone="no"?>
<!DOCTYPE svg PUBLIC "-//W3C//DTD SVG 1.1//EN" "http://www.w3.org/Graphics/SVG/1.1/DTD/svg11.dtd">
<svg version="1.1" width="612pt" height="792pt" viewBox="0 0 612 792" overflow="visible" xmlns="http://www.w3.org/2000/svg">
  <path d="M152.7263,361.0391 L151.6008,361.2267 C146.2239,362.4146 140.503,363.3837 134.4383,364.134 C118.3074,366.0097 107.7722,365.4157 102.8329,362.3521 C100.4571,366.3535 99.3629,369.7923 99.55047,372.6684 C99.92561,377.7953 104.4585,380.0773 113.1492,379.5146 C116.4004,379.3271 119.7454,378.8269 123.1842,378.0141 C114.9311,385.7669 106.7406,394.145 98.61263,403.1483 L94.20476,408.0251 C84.2636,405.6492 78.6678,402.5856 77.41734,398.8342 C76.2294,400.2097 75.22903,401.6165 74.41624,403.0545 C71.03999,408.8692 71.63396,413.4646 76.19814,416.8409 C78.19888,418.2164 80.73106,419.373 83.79468,420.3109 L80.23087,424.625 C74.29119,432.1277 70.13342,438.1612 67.75754,442.7254 C66.63213,445.0387 67.2261,447.5084 69.53944,450.1343 C72.22793,453.0104 75.54165,454.636 79.4806,455.0111 L80.0433,453.4168 L82.57549,449.1965 C84.88883,445.5702 88.35886,440.7559 92.98556,434.7537 L102.4578,422.6555 C106.7719,422.7805 112.3989,422.6555 119.339,422.2804 C114.7123,432.7842 110.617,443.0067 107.0532,452.9479 C106.3029,455.949 107.8348,458.0122 111.6487,459.1376 C113.3993,459.6378 116.9944,459.9504 122.4339,460.0755 L126.279,449.853 C134.3445,429.0954 147.4431,401.7728 165.5747,367.8854 C159.8851,363.3212 155.6023,361.0391 152.7263,361.0391 z" stroke="#000000" stroke-width="0.24" fill="none" />
  <path d="M139.6902,380.5463 C131.9999,388.2366 123.3092,397.8026 113.6181,409.2443 L112.1176,411.0262 C116.2441,411.4639 120.2456,411.7765 124.122,411.9641 C128.4986,402.5856 133.688,392.113 139.6902,380.5463 z" stroke="#000000" stroke-width="0.24" fill="none" />
</svg>