<?xml version="1.0" encoding="UTF-8" standalone="no"?>
<!DOCTYPE svg PUBLIC "-//W3C//DTD SVG 1.1//EN" "http://www.w3.org/Graphics/SVG/1.1/DTD/svg11.dtd">
<svg width="100%" height="100%" viewBox="0 0 1475 400" version="1.1" xmlns="http://www.w3.org/2000/svg" xmlns:xlink="http://www.w3.org/1999/xlink" xml:space="preserve" xmlns:serif="http://www.serif.com/" style="fill-rule:evenodd;clip-rule:evenodd;stroke-linejoin:round;stroke-miterlimit:2;">
    <g transform="matrix(1,0,0,1,-107.217,-492.618)">
        <g id="ABCD.svg" transform="matrix(4.16667,0,0,4.16667,844.717,692.618)">
            <g transform="matrix(1,0,0,1,-177,-48)">
                <g transform="matrix(1,0,0,1,-181.34,-258.615)">
                    <g transform="matrix(2.59265,0,0,2.59265,-683.715,-481.275)">
                        <path d="M333.657,321.782L347.402,285.991L352.505,285.991L367.153,321.782L361.757,321.782L357.583,310.942L342.617,310.942L338.686,321.782L333.657,321.782ZM343.984,307.084L356.118,307.084L352.382,297.172C351.243,294.161 350.397,291.687 349.843,289.75C349.388,292.045 348.745,294.324 347.915,296.586L343.984,307.084Z" style="fill:rgb(255,241,0);fill-rule:nonzero;"/>
                    </g>
                    <g transform="matrix(2.59265,0,0,2.59265,-683.715,-481.275)">
                        <path d="M370.742,321.782L370.742,285.991L384.17,285.991C386.904,285.991 389.097,286.353 390.749,287.077C392.401,287.801 393.695,288.916 394.631,290.422C395.567,291.927 396.035,293.502 396.035,295.146C396.035,296.676 395.62,298.116 394.79,299.467C393.96,300.818 392.706,301.909 391.03,302.739C393.195,303.374 394.859,304.456 396.023,305.986C397.186,307.516 397.768,309.322 397.768,311.406C397.768,313.082 397.414,314.641 396.706,316.081C395.998,317.521 395.123,318.632 394.082,319.414C393.04,320.195 391.734,320.785 390.163,321.184C388.593,321.582 386.668,321.782 384.389,321.782L370.742,321.782ZM375.478,301.03L383.217,301.03C385.317,301.03 386.823,300.891 387.734,300.615C388.938,300.257 389.846,299.663 390.456,298.833C391.067,298.002 391.372,296.961 391.372,295.708C391.372,294.519 391.087,293.474 390.517,292.57C389.948,291.667 389.134,291.048 388.076,290.715C387.018,290.381 385.203,290.214 382.631,290.214L375.478,290.214L375.478,301.03ZM375.478,317.558L384.389,317.558C385.919,317.558 386.993,317.501 387.612,317.387C388.702,317.192 389.614,316.866 390.346,316.411C391.079,315.955 391.681,315.292 392.153,314.421C392.625,313.55 392.861,312.545 392.861,311.406C392.861,310.071 392.519,308.911 391.836,307.927C391.152,306.942 390.204,306.25 388.991,305.852C387.779,305.453 386.033,305.253 383.755,305.253L375.478,305.253L375.478,317.558Z" style="fill:rgb(255,241,0);fill-rule:nonzero;"/>
                    </g>
                    <g transform="matrix(2.59265,0,0,2.59265,-683.715,-481.275)">
                        <path d="M429.824,309.233L434.56,310.429C433.567,314.319 431.781,317.285 429.201,319.328C426.622,321.371 423.468,322.392 419.741,322.392C415.883,322.392 412.746,321.607 410.329,320.036C407.912,318.465 406.073,316.191 404.812,313.212C403.55,310.234 402.92,307.036 402.92,303.618C402.92,299.89 403.632,296.639 405.056,293.864C406.48,291.089 408.506,288.981 411.135,287.541C413.763,286.101 416.657,285.38 419.814,285.38C423.395,285.38 426.406,286.292 428.847,288.115C431.289,289.938 432.99,292.501 433.95,295.805L429.287,296.904C428.457,294.3 427.252,292.403 425.673,291.215C424.095,290.027 422.109,289.433 419.716,289.433C416.966,289.433 414.667,290.092 412.819,291.411C410.972,292.729 409.674,294.499 408.925,296.721C408.177,298.942 407.802,301.233 407.802,303.593C407.802,306.637 408.246,309.294 409.133,311.564C410.02,313.835 411.399,315.532 413.271,316.655C415.143,317.778 417.169,318.339 419.35,318.339C422.003,318.339 424.249,317.574 426.088,316.044C427.928,314.514 429.173,312.244 429.824,309.233Z" style="fill:rgb(255,241,0);fill-rule:nonzero;"/>
                    </g>
                    <g transform="matrix(2.59265,0,0,2.59265,-683.715,-481.275)">
                        <path d="M440.395,321.782L440.395,285.991L452.724,285.991C455.507,285.991 457.631,286.162 459.096,286.503C461.147,286.975 462.897,287.83 464.345,289.067C466.233,290.662 467.645,292.701 468.581,295.183C469.517,297.665 469.985,300.501 469.985,303.691C469.985,306.409 469.668,308.818 469.033,310.917C468.398,313.017 467.584,314.755 466.591,316.13C465.599,317.505 464.512,318.588 463.332,319.377C462.152,320.166 460.728,320.764 459.06,321.171C457.391,321.578 455.475,321.782 453.31,321.782L440.395,321.782ZM445.131,317.558L452.773,317.558C455.133,317.558 456.984,317.338 458.327,316.899C459.67,316.459 460.74,315.841 461.538,315.043C462.661,313.92 463.536,312.411 464.162,310.515C464.789,308.618 465.102,306.319 465.102,303.618C465.102,299.874 464.488,296.997 463.259,294.987C462.03,292.977 460.537,291.63 458.779,290.947C457.509,290.458 455.467,290.214 452.651,290.214L445.131,290.214L445.131,317.558Z" style="fill:rgb(255,241,0);fill-rule:nonzero;"/>
                    </g>
                </g>
            </g>
        </g>
    </g>
</svg>
