<?xml version="1.0" encoding="UTF-8" standalone="no"?>
<!DOCTYPE svg PUBLIC "-//W3C//DTD SVG 1.1//EN" "http://www.w3.org/Graphics/SVG/1.1/DTD/svg11.dtd">
<svg width="100%" height="100%" viewBox="0 0 878 99" version="1.1" xmlns="http://www.w3.org/2000/svg" xmlns:xlink="http://www.w3.org/1999/xlink" xml:space="preserve" xmlns:serif="http://www.serif.com/" style="fill-rule:evenodd;clip-rule:evenodd;stroke-linejoin:round;stroke-miterlimit:2;">
    <g transform="matrix(1,0,0,1,-100.977,-296.857)">
        <g transform="matrix(1,0,0,1,43.3409,180.207)">
            <path d="M57.636,153.076L71.381,117.285L76.484,117.285L91.132,153.076L85.737,153.076L81.562,142.236L66.596,142.236L62.665,153.076L57.636,153.076ZM67.963,138.379L80.097,138.379L76.362,128.466C75.222,125.455 74.376,122.981 73.823,121.045C73.367,123.339 72.724,125.618 71.894,127.881L67.963,138.379Z" style="fill:rgb(255,11,11);fill-rule:nonzero;"/>
            <path d="M94.721,153.076L94.721,117.285L108.149,117.285C110.883,117.285 113.076,117.647 114.728,118.371C116.38,119.096 117.674,120.21 118.61,121.716C119.546,123.221 120.014,124.796 120.014,126.44C120.014,127.97 119.599,129.41 118.769,130.761C117.939,132.112 116.686,133.203 115.009,134.033C117.174,134.668 118.838,135.75 120.002,137.28C121.166,138.81 121.747,140.617 121.747,142.7C121.747,144.376 121.393,145.935 120.685,147.375C119.977,148.816 119.103,149.926 118.061,150.708C117.019,151.489 115.713,152.079 114.142,152.478C112.572,152.876 110.647,153.076 108.369,153.076L94.721,153.076ZM99.457,132.324L107.197,132.324C109.296,132.324 110.802,132.186 111.713,131.909C112.918,131.551 113.825,130.957 114.435,130.127C115.046,129.297 115.351,128.255 115.351,127.002C115.351,125.813 115.066,124.768 114.496,123.864C113.927,122.961 113.113,122.343 112.055,122.009C110.997,121.675 109.182,121.508 106.611,121.508L99.457,121.508L99.457,132.324ZM99.457,148.852L108.369,148.852C109.898,148.852 110.973,148.795 111.591,148.681C112.682,148.486 113.593,148.16 114.326,147.705C115.058,147.249 115.66,146.586 116.132,145.715C116.604,144.844 116.84,143.839 116.84,142.7C116.84,141.365 116.498,140.206 115.815,139.221C115.131,138.236 114.183,137.544 112.971,137.146C111.758,136.747 110.012,136.548 107.734,136.548L99.457,136.548L99.457,148.852Z" style="fill:rgb(255,11,11);fill-rule:nonzero;"/>
            <path d="M153.803,140.527L158.539,141.723C157.547,145.613 155.76,148.58 153.181,150.622C150.601,152.665 147.447,153.686 143.72,153.686C139.863,153.686 136.725,152.901 134.308,151.33C131.891,149.76 130.052,147.485 128.791,144.506C127.529,141.528 126.899,138.33 126.899,134.912C126.899,131.185 127.611,127.933 129.035,125.158C130.459,122.383 132.486,120.276 135.114,118.835C137.743,117.395 140.636,116.674 143.793,116.674C147.374,116.674 150.385,117.586 152.827,119.409C155.268,121.232 156.969,123.795 157.929,127.099L153.266,128.198C152.436,125.594 151.231,123.698 149.653,122.509C148.074,121.321 146.088,120.727 143.696,120.727C140.945,120.727 138.646,121.386 136.799,122.705C134.951,124.023 133.653,125.793 132.905,128.015C132.156,130.236 131.782,132.527 131.782,134.887C131.782,137.931 132.225,140.588 133.112,142.859C133.999,145.129 135.379,146.826 137.25,147.949C139.122,149.072 141.148,149.633 143.329,149.633C145.982,149.633 148.229,148.868 150.068,147.339C151.907,145.809 153.152,143.538 153.803,140.527Z" style="fill:rgb(255,11,11);fill-rule:nonzero;"/>
            <path d="M164.374,153.076L164.374,117.285L176.703,117.285C179.487,117.285 181.611,117.456 183.076,117.798C185.126,118.27 186.876,119.124 188.325,120.361C190.213,121.956 191.625,123.995 192.56,126.477C193.496,128.959 193.964,131.795 193.964,134.985C193.964,137.703 193.647,140.112 193.012,142.212C192.377,144.311 191.564,146.049 190.571,147.424C189.578,148.799 188.491,149.882 187.311,150.671C186.131,151.46 184.707,152.059 183.039,152.465C181.371,152.872 179.454,153.076 177.289,153.076L164.374,153.076ZM169.111,148.852L176.752,148.852C179.112,148.852 180.964,148.632 182.307,148.193C183.649,147.754 184.719,147.135 185.517,146.338C186.64,145.214 187.515,143.705 188.141,141.809C188.768,139.913 189.081,137.614 189.081,134.912C189.081,131.168 188.467,128.291 187.238,126.281C186.009,124.271 184.516,122.924 182.758,122.241C181.489,121.753 179.446,121.508 176.63,121.508L169.111,121.508L169.111,148.852Z" style="fill:rgb(255,11,11);fill-rule:nonzero;"/>
            <path d="M200.58,153.076L200.58,117.285L226.459,117.285L226.459,121.508L205.317,121.508L205.317,132.47L225.117,132.47L225.117,136.67L205.317,136.67L205.317,148.852L227.289,148.852L227.289,153.076L200.58,153.076Z" style="fill:rgb(255,11,11);fill-rule:nonzero;"/>
            <path d="M234.077,153.076L234.077,117.285L258.222,117.285L258.222,121.508L238.813,121.508L238.813,132.592L255.61,132.592L255.61,136.816L238.813,136.816L238.813,153.076L234.077,153.076Z" style="fill:rgb(255,11,11);fill-rule:nonzero;"/>
            <path d="M281.122,139.038L281.122,134.839L296.284,134.814L296.284,148.095C293.956,149.951 291.555,151.346 289.081,152.282C286.607,153.218 284.068,153.686 281.464,153.686C277.949,153.686 274.754,152.933 271.882,151.428C269.009,149.922 266.84,147.745 265.375,144.897C263.911,142.049 263.178,138.867 263.178,135.351C263.178,131.868 263.906,128.617 265.363,125.598C266.82,122.579 268.915,120.337 271.65,118.872C274.384,117.407 277.534,116.674 281.098,116.674C283.686,116.674 286.026,117.094 288.117,117.932C290.209,118.77 291.848,119.938 293.036,121.435C294.225,122.933 295.128,124.886 295.746,127.295L291.474,128.466C290.937,126.644 290.27,125.211 289.472,124.17C288.675,123.128 287.535,122.294 286.054,121.667C284.573,121.041 282.929,120.727 281.122,120.727C278.958,120.727 277.086,121.057 275.507,121.716C273.928,122.375 272.655,123.242 271.686,124.316C270.718,125.39 269.965,126.57 269.428,127.856C268.517,130.07 268.061,132.47 268.061,135.058C268.061,138.248 268.61,140.918 269.709,143.066C270.807,145.214 272.407,146.81 274.506,147.851C276.606,148.893 278.836,149.414 281.196,149.414C283.246,149.414 285.248,149.019 287.202,148.23C289.155,147.44 290.636,146.598 291.645,145.703L291.645,139.038L281.122,139.038Z" style="fill:rgb(255,11,11);fill-rule:nonzero;"/>
            <path d="M303.412,153.076L303.412,117.285L308.149,117.285L308.149,131.982L326.752,131.982L326.752,117.285L331.489,117.285L331.489,153.076L326.752,153.076L326.752,136.206L308.149,136.206L308.149,153.076L303.412,153.076Z" style="fill:rgb(255,11,11);fill-rule:nonzero;"/>
            <path d="M340.18,153.076L340.18,117.285L344.916,117.285L344.916,153.076L340.18,153.076ZM350.019,142.92L354.291,142.334C354.405,145.068 354.918,146.94 355.829,147.949C356.741,148.958 358.002,149.463 359.614,149.463C360.802,149.463 361.827,149.19 362.69,148.645C363.552,148.099 364.147,147.359 364.472,146.423C364.798,145.487 364.96,143.994 364.96,141.943L364.96,117.285L369.697,117.285L369.697,141.674C369.697,144.669 369.334,146.989 368.61,148.632C367.886,150.276 366.738,151.53 365.168,152.392C363.597,153.255 361.754,153.686 359.638,153.686C356.497,153.686 354.092,152.783 352.424,150.976C350.755,149.17 349.954,146.484 350.019,142.92Z" style="fill:rgb(255,11,11);fill-rule:nonzero;"/>
            <path d="M375.922,153.076L375.922,117.285L380.659,117.285L380.659,135.034L398.432,117.285L404.853,117.285L389.838,131.787L405.512,153.076L399.262,153.076L386.518,134.961L380.659,140.673L380.659,153.076L375.922,153.076Z" style="fill:rgb(255,11,11);fill-rule:nonzero;"/>
            <path d="M409.272,153.076L409.272,117.285L414.008,117.285L414.008,148.852L431.635,148.852L431.635,153.076L409.272,153.076Z" style="fill:rgb(255,11,11);fill-rule:nonzero;"/>
            <path d="M437.128,153.076L437.128,117.285L444.257,117.285L452.729,142.627C453.51,144.987 454.08,146.753 454.438,147.924C454.845,146.622 455.48,144.71 456.342,142.187L464.911,117.285L471.284,117.285L471.284,153.076L466.718,153.076L466.718,123.12L456.318,153.076L452.045,153.076L441.694,122.607L441.694,153.076L437.128,153.076Z" style="fill:rgb(255,11,11);fill-rule:nonzero;"/>
            <path d="M478.876,153.076L478.876,117.285L483.735,117.285L502.534,145.385L502.534,117.285L507.075,117.285L507.075,153.076L502.216,153.076L483.417,124.951L483.417,153.076L478.876,153.076Z" style="fill:rgb(255,11,11);fill-rule:nonzero;"/>
            <path d="M513.593,135.644C513.593,129.703 515.188,125.053 518.378,121.692C521.568,118.331 525.686,116.65 530.732,116.65C534.036,116.65 537.014,117.439 539.667,119.018C542.32,120.597 544.343,122.798 545.734,125.622C547.126,128.446 547.822,131.648 547.822,135.229C547.822,138.859 547.089,142.106 545.624,144.97C544.16,147.835 542.084,150.004 539.399,151.477C536.713,152.95 533.816,153.686 530.707,153.686C527.338,153.686 524.327,152.872 521.674,151.245C519.021,149.617 517.011,147.395 515.644,144.58C514.277,141.764 513.593,138.785 513.593,135.644ZM518.476,135.717C518.476,140.031 519.636,143.428 521.955,145.91C524.274,148.392 527.184,149.633 530.683,149.633C534.247,149.633 537.181,148.38 539.484,145.874C541.787,143.367 542.939,139.811 542.939,135.205C542.939,132.291 542.446,129.748 541.462,127.575C540.477,125.402 539.037,123.718 537.14,122.522C535.244,121.325 533.116,120.727 530.756,120.727C527.403,120.727 524.518,121.879 522.101,124.182C519.684,126.485 518.476,130.33 518.476,135.717Z" style="fill:rgb(255,11,11);fill-rule:nonzero;"/>
            <path d="M553.925,153.076L553.925,117.285L567.426,117.285C569.802,117.285 571.617,117.399 572.87,117.627C574.628,117.92 576.101,118.477 577.289,119.299C578.478,120.121 579.434,121.272 580.158,122.754C580.882,124.235 581.244,125.862 581.244,127.636C581.244,130.68 580.276,133.256 578.339,135.363C576.402,137.471 572.903,138.525 567.841,138.525L558.661,138.525L558.661,153.076L553.925,153.076ZM558.661,134.301L567.914,134.301C570.974,134.301 573.147,133.732 574.433,132.592C575.719,131.453 576.362,129.85 576.362,127.783C576.362,126.285 575.983,125.004 575.226,123.938C574.47,122.872 573.473,122.168 572.236,121.826C571.438,121.614 569.965,121.508 567.817,121.508L558.661,121.508L558.661,134.301Z" style="fill:rgb(255,11,11);fill-rule:nonzero;"/>
            <path d="M614.399,149.243C616.596,150.756 618.622,151.863 620.478,152.563L619.086,155.859C616.515,154.931 613.951,153.466 611.396,151.464C608.743,152.946 605.813,153.686 602.607,153.686C599.368,153.686 596.43,152.905 593.793,151.342C591.157,149.78 589.126,147.583 587.702,144.751C586.278,141.919 585.566,138.728 585.566,135.18C585.566,131.648 586.282,128.434 587.714,125.537C589.147,122.64 591.185,120.434 593.83,118.921C596.475,117.407 599.433,116.65 602.704,116.65C606.008,116.65 608.987,117.435 611.64,119.006C614.293,120.577 616.315,122.774 617.707,125.598C619.098,128.422 619.794,131.608 619.794,135.156C619.794,138.102 619.347,140.751 618.452,143.103C617.556,145.455 616.205,147.501 614.399,149.243ZM603.974,143.188C606.708,143.953 608.963,145.092 610.737,146.606C613.52,144.067 614.911,140.25 614.911,135.156C614.911,132.259 614.419,129.728 613.434,127.563C612.45,125.398 611.009,123.718 609.113,122.522C607.217,121.325 605.089,120.727 602.729,120.727C599.197,120.727 596.267,121.936 593.94,124.353C591.612,126.77 590.449,130.379 590.449,135.18C590.449,139.835 591.6,143.408 593.903,145.898C596.206,148.388 599.148,149.633 602.729,149.633C604.422,149.633 606.017,149.316 607.514,148.681C606.033,147.721 604.47,147.037 602.827,146.631L603.974,143.188Z" style="fill:rgb(255,11,11);fill-rule:nonzero;"/>
            <path d="M626.24,153.076L626.24,117.285L642.109,117.285C645.299,117.285 647.724,117.606 649.384,118.249C651.044,118.892 652.371,120.027 653.364,121.655C654.356,123.283 654.853,125.081 654.853,127.05C654.853,129.589 654.031,131.73 652.387,133.471C650.743,135.213 648.204,136.32 644.77,136.792C646.023,137.394 646.975,137.988 647.626,138.574C649.01,139.843 650.32,141.43 651.557,143.335L657.783,153.076L651.826,153.076L647.089,145.63C645.706,143.481 644.566,141.837 643.671,140.698C642.776,139.559 641.974,138.761 641.266,138.305C640.558,137.85 639.838,137.532 639.106,137.353C638.569,137.239 637.69,137.182 636.469,137.182L630.976,137.182L630.976,153.076L626.24,153.076ZM630.976,133.081L641.157,133.081C643.321,133.081 645.014,132.857 646.235,132.409C647.455,131.962 648.383,131.246 649.018,130.261C649.653,129.276 649.97,128.206 649.97,127.05C649.97,125.358 649.356,123.966 648.127,122.876C646.898,121.785 644.957,121.24 642.304,121.24L630.976,121.24L630.976,133.081Z" style="fill:rgb(255,11,11);fill-rule:nonzero;"/>
            <path d="M660.663,141.577L665.131,141.186C665.343,142.977 665.835,144.445 666.608,145.593C667.381,146.74 668.582,147.668 670.209,148.376C671.837,149.084 673.668,149.438 675.702,149.438C677.509,149.438 679.104,149.17 680.488,148.632C681.871,148.095 682.901,147.359 683.576,146.423C684.251,145.487 684.589,144.466 684.589,143.359C684.589,142.236 684.264,141.255 683.613,140.417C682.962,139.579 681.887,138.875 680.39,138.305C679.43,137.931 677.306,137.349 674.018,136.56C670.73,135.77 668.427,135.026 667.109,134.326C665.4,133.431 664.126,132.32 663.288,130.993C662.45,129.667 662.031,128.182 662.031,126.538C662.031,124.731 662.543,123.042 663.569,121.472C664.594,119.901 666.091,118.709 668.061,117.895C670.03,117.081 672.219,116.674 674.628,116.674C677.281,116.674 679.621,117.102 681.647,117.956C683.674,118.811 685.232,120.068 686.323,121.728C687.413,123.388 687.999,125.268 688.08,127.368L683.539,127.71C683.295,125.447 682.469,123.738 681.061,122.583C679.654,121.427 677.574,120.849 674.824,120.849C671.959,120.849 669.872,121.374 668.561,122.424C667.251,123.474 666.596,124.739 666.596,126.22C666.596,127.506 667.06,128.564 667.988,129.394C668.899,130.224 671.279,131.075 675.129,131.945C678.978,132.816 681.619,133.577 683.051,134.228C685.134,135.188 686.673,136.405 687.665,137.878C688.658,139.351 689.155,141.048 689.155,142.968C689.155,144.873 688.609,146.667 687.519,148.352C686.428,150.036 684.862,151.346 682.819,152.282C680.777,153.218 678.478,153.686 675.922,153.686C672.683,153.686 669.969,153.214 667.78,152.27C665.591,151.326 663.874,149.906 662.629,148.01C661.384,146.114 660.729,143.969 660.663,141.577Z" style="fill:rgb(255,11,11);fill-rule:nonzero;"/>
            <path d="M704.731,153.076L704.731,121.508L692.939,121.508L692.939,117.285L721.308,117.285L721.308,121.508L709.467,121.508L709.467,153.076L704.731,153.076Z" style="fill:rgb(255,11,11);fill-rule:nonzero;"/>
            <path d="M749.653,117.285L754.389,117.285L754.389,137.964C754.389,141.561 753.982,144.417 753.168,146.533C752.355,148.649 750.886,150.37 748.762,151.696C746.638,153.023 743.85,153.686 740.4,153.686C737.047,153.686 734.304,153.108 732.172,151.953C730.04,150.797 728.518,149.125 727.607,146.936C726.695,144.747 726.24,141.756 726.24,137.964L726.24,117.285L730.976,117.285L730.976,137.939C730.976,141.048 731.265,143.339 731.843,144.812C732.42,146.285 733.413,147.42 734.821,148.217C736.229,149.015 737.95,149.414 739.985,149.414C743.468,149.414 745.95,148.624 747.431,147.046C748.912,145.467 749.653,142.431 749.653,137.939L749.653,117.285Z" style="fill:rgb(255,11,11);fill-rule:nonzero;"/>
            <path d="M772.504,153.076L758.637,117.285L763.764,117.285L773.066,143.286C773.814,145.369 774.441,147.322 774.946,149.145C775.499,147.192 776.142,145.239 776.874,143.286L786.542,117.285L791.376,117.285L777.363,153.076L772.504,153.076Z" style="fill:rgb(255,11,11);fill-rule:nonzero;"/>
            <path d="M801.874,153.076L792.377,117.285L797.236,117.285L802.68,140.747C803.266,143.204 803.771,145.646 804.194,148.071C805.105,144.246 805.642,142.041 805.805,141.455L812.617,117.285L818.329,117.285L823.456,135.4C824.742,139.892 825.67,144.116 826.24,148.071C826.695,145.809 827.289,143.213 828.022,140.283L833.637,117.285L838.398,117.285L828.583,153.076L824.018,153.076L816.474,125.805C815.839,123.527 815.465,122.127 815.351,121.606C814.977,123.25 814.627,124.65 814.301,125.805L806.708,153.076L801.874,153.076Z" style="fill:rgb(255,11,11);fill-rule:nonzero;"/>
            <path d="M839.179,153.076L853.022,134.423L840.815,117.285L846.454,117.285L852.949,126.464C854.3,128.369 855.26,129.834 855.829,130.859C856.627,129.557 857.571,128.198 858.661,126.782L865.864,117.285L871.015,117.285L858.442,134.155L871.992,153.076L866.132,153.076L857.123,140.307C856.619,139.575 856.098,138.777 855.561,137.915C854.763,139.217 854.194,140.112 853.852,140.6L844.868,153.076L839.179,153.076Z" style="fill:rgb(255,11,11);fill-rule:nonzero;"/>
            <path d="M886.249,153.076L886.249,137.915L872.455,117.285L878.217,117.285L885.273,128.076C886.575,130.094 887.787,132.112 888.911,134.131C889.985,132.259 891.287,130.151 892.817,127.807L899.75,117.285L905.268,117.285L890.986,137.915L890.986,153.076L886.249,153.076Z" style="fill:rgb(255,11,11);fill-rule:nonzero;"/>
            <path d="M906.66,153.076L906.66,148.681L924.994,125.756C926.297,124.129 927.534,122.713 928.705,121.508L908.735,121.508L908.735,117.285L934.369,117.285L934.369,121.508L914.277,146.338L912.104,148.852L934.955,148.852L934.955,153.076L906.66,153.076Z" style="fill:rgb(255,11,11);fill-rule:nonzero;"/>
            <path d="M77.924,201.513C76.297,202.897 74.73,203.873 73.224,204.443C71.719,205.013 70.104,205.298 68.378,205.298C65.53,205.298 63.341,204.602 61.811,203.21C60.281,201.818 59.516,200.04 59.516,197.876C59.516,196.606 59.805,195.446 60.383,194.397C60.96,193.347 61.717,192.505 62.653,191.87C63.589,191.235 64.643,190.755 65.815,190.429C66.677,190.201 67.98,189.982 69.721,189.77C73.269,189.347 75.882,188.842 77.558,188.256C77.574,187.654 77.582,187.272 77.582,187.109C77.582,185.319 77.167,184.057 76.337,183.325C75.214,182.332 73.546,181.836 71.332,181.836C69.265,181.836 67.739,182.198 66.755,182.922C65.77,183.646 65.042,184.928 64.57,186.767L60.273,186.181C60.663,184.342 61.306,182.857 62.202,181.726C63.097,180.595 64.391,179.724 66.083,179.113C67.776,178.503 69.737,178.198 71.967,178.198C74.181,178.198 75.979,178.458 77.363,178.979C78.746,179.5 79.763,180.155 80.414,180.944C81.065,181.734 81.521,182.731 81.782,183.935C81.928,184.684 82.001,186.035 82.001,187.988L82.001,193.847C82.001,197.933 82.095,200.516 82.282,201.599C82.469,202.681 82.84,203.719 83.393,204.712L78.803,204.712C78.347,203.8 78.054,202.734 77.924,201.513ZM77.558,191.699C75.963,192.35 73.57,192.903 70.38,193.359C68.574,193.619 67.296,193.912 66.547,194.238C65.799,194.563 65.221,195.04 64.814,195.666C64.407,196.293 64.203,196.989 64.203,197.754C64.203,198.925 64.647,199.902 65.534,200.683C66.421,201.464 67.719,201.855 69.428,201.855C71.121,201.855 72.626,201.485 73.945,200.744C75.263,200.004 76.231,198.991 76.85,197.705C77.322,196.712 77.558,195.247 77.558,193.31L77.558,191.699Z" style="fill:rgb(255,11,11);fill-rule:nonzero;"/>
            <path d="M92.866,204.712L88.788,204.712L88.788,168.921L93.183,168.921L93.183,181.689C95.038,179.362 97.407,178.198 100.287,178.198C101.883,178.198 103.392,178.519 104.816,179.162C106.24,179.805 107.412,180.708 108.332,181.872C109.251,183.036 109.972,184.44 110.493,186.084C111.013,187.728 111.274,189.485 111.274,191.357C111.274,195.8 110.175,199.235 107.978,201.66C105.781,204.085 103.144,205.298 100.068,205.298C97.008,205.298 94.607,204.02 92.866,201.464L92.866,204.712ZM92.817,191.552C92.817,194.661 93.24,196.907 94.086,198.291C95.47,200.553 97.341,201.684 99.702,201.684C101.622,201.684 103.282,200.85 104.682,199.182C106.082,197.513 106.782,195.027 106.782,191.723C106.782,188.338 106.11,185.839 104.767,184.228C103.425,182.617 101.801,181.811 99.897,181.811C97.976,181.811 96.316,182.645 94.916,184.314C93.517,185.982 92.817,188.395 92.817,191.552Z" style="fill:rgb(255,11,11);fill-rule:nonzero;"/>
            <path d="M133.539,195.214L137.861,195.776C137.389,198.755 136.18,201.086 134.235,202.771C132.29,204.455 129.902,205.298 127.07,205.298C123.522,205.298 120.669,204.138 118.513,201.818C116.356,199.499 115.278,196.175 115.278,191.845C115.278,189.046 115.742,186.596 116.669,184.497C117.597,182.397 119.009,180.822 120.905,179.773C122.801,178.723 124.864,178.198 127.094,178.198C129.91,178.198 132.213,178.91 134.003,180.334C135.794,181.758 136.941,183.781 137.446,186.401L133.173,187.06C132.766,185.319 132.046,184.008 131.013,183.13C129.979,182.251 128.73,181.811 127.265,181.811C125.051,181.811 123.253,182.605 121.869,184.192C120.486,185.778 119.794,188.289 119.794,191.723C119.794,195.206 120.462,197.737 121.796,199.316C123.131,200.895 124.872,201.684 127.021,201.684C128.746,201.684 130.187,201.155 131.342,200.097C132.498,199.039 133.23,197.412 133.539,195.214Z" style="fill:rgb(255,11,11);fill-rule:nonzero;"/>
            <path d="M158.442,204.712L158.442,201.44C156.798,204.012 154.381,205.298 151.191,205.298C149.124,205.298 147.223,204.728 145.49,203.589C143.757,202.449 142.414,200.858 141.462,198.816C140.51,196.773 140.034,194.425 140.034,191.772C140.034,189.184 140.465,186.836 141.327,184.729C142.19,182.621 143.484,181.006 145.209,179.882C146.935,178.759 148.863,178.198 150.995,178.198C152.558,178.198 153.95,178.527 155.17,179.187C156.391,179.846 157.384,180.704 158.149,181.762L158.149,168.921L162.519,168.921L162.519,204.712L158.442,204.712ZM144.55,191.772C144.55,195.092 145.25,197.575 146.65,199.218C148.05,200.862 149.702,201.684 151.606,201.684C153.526,201.684 155.158,200.899 156.501,199.328C157.844,197.758 158.515,195.361 158.515,192.138C158.515,188.59 157.831,185.986 156.464,184.326C155.097,182.666 153.412,181.836 151.411,181.836C149.457,181.836 147.826,182.633 146.515,184.228C145.205,185.823 144.55,188.338 144.55,191.772Z" style="fill:rgb(255,11,11);fill-rule:nonzero;"/>
            <path d="M187.177,196.362L191.718,196.923C191.002,199.576 189.675,201.635 187.739,203.1C185.802,204.565 183.328,205.298 180.317,205.298C176.524,205.298 173.517,204.13 171.296,201.794C169.074,199.458 167.963,196.183 167.963,191.967C167.963,187.605 169.086,184.22 171.332,181.811C173.578,179.402 176.492,178.198 180.073,178.198C183.539,178.198 186.371,179.378 188.569,181.738C190.766,184.098 191.865,187.418 191.865,191.699C191.865,191.959 191.856,192.35 191.84,192.871L172.504,192.871C172.667,195.719 173.473,197.9 174.921,199.414C176.37,200.927 178.176,201.684 180.341,201.684C181.952,201.684 183.328,201.261 184.467,200.415C185.606,199.568 186.51,198.217 187.177,196.362ZM172.748,189.257L187.226,189.257C187.031,187.076 186.477,185.441 185.566,184.35C184.166,182.658 182.351,181.811 180.121,181.811C178.103,181.811 176.406,182.487 175.031,183.838C173.656,185.188 172.895,186.995 172.748,189.257Z" style="fill:rgb(255,11,11);fill-rule:nonzero;"/>
            <path d="M198.286,204.712L198.286,182.202L194.404,182.202L194.404,178.784L198.286,178.784L198.286,176.025C198.286,174.284 198.44,172.99 198.749,172.143C199.173,171.004 199.917,170.08 200.983,169.372C202.049,168.664 203.543,168.31 205.463,168.31C206.7,168.31 208.067,168.457 209.565,168.75L208.906,172.583C207.994,172.42 207.132,172.339 206.318,172.339C204.983,172.339 204.039,172.623 203.486,173.193C202.932,173.763 202.656,174.829 202.656,176.391L202.656,178.784L207.709,178.784L207.709,182.202L202.656,182.202L202.656,204.712L198.286,204.712Z" style="fill:rgb(255,11,11);fill-rule:nonzero;"/>
            <path d="M210.322,206.86L214.594,207.495C214.773,208.813 215.27,209.773 216.083,210.376C217.174,211.189 218.663,211.596 220.551,211.596C222.586,211.596 224.156,211.189 225.263,210.376C226.37,209.562 227.119,208.423 227.509,206.958C227.737,206.062 227.843,204.183 227.827,201.318C225.906,203.58 223.513,204.712 220.649,204.712C217.084,204.712 214.326,203.426 212.372,200.854C210.419,198.283 209.443,195.198 209.443,191.601C209.443,189.127 209.89,186.845 210.786,184.753C211.681,182.662 212.979,181.046 214.68,179.907C216.38,178.768 218.378,178.198 220.673,178.198C223.733,178.198 226.256,179.435 228.242,181.909L228.242,178.784L232.294,178.784L232.294,201.196C232.294,205.232 231.883,208.093 231.061,209.777C230.239,211.462 228.937,212.793 227.155,213.769C225.373,214.746 223.18,215.234 220.576,215.234C217.483,215.234 214.985,214.538 213.08,213.147C211.176,211.755 210.257,209.659 210.322,206.86ZM213.959,191.284C213.959,194.686 214.635,197.168 215.986,198.73C217.337,200.293 219.029,201.074 221.064,201.074C223.082,201.074 224.775,200.297 226.142,198.742C227.509,197.188 228.193,194.751 228.193,191.43C228.193,188.256 227.489,185.864 226.081,184.253C224.673,182.641 222.976,181.836 220.991,181.836C219.037,181.836 217.377,182.629 216.01,184.216C214.643,185.803 213.959,188.159 213.959,191.284Z" style="fill:rgb(255,11,11);fill-rule:nonzero;"/>
            <path d="M238.935,204.712L238.935,168.921L243.329,168.921L243.329,181.762C245.38,179.386 247.968,178.198 251.093,178.198C253.014,178.198 254.682,178.576 256.098,179.333C257.514,180.09 258.527,181.136 259.138,182.47C259.748,183.805 260.053,185.742 260.053,188.281L260.053,204.712L255.659,204.712L255.659,188.281C255.659,186.084 255.182,184.485 254.23,183.484C253.278,182.483 251.931,181.982 250.19,181.982C248.888,181.982 247.663,182.32 246.515,182.995C245.368,183.671 244.55,184.586 244.062,185.742C243.574,186.897 243.329,188.492 243.329,190.527L243.329,204.712L238.935,204.712Z" style="fill:rgb(255,11,11);fill-rule:nonzero;"/>
            <path d="M266.767,173.974L266.767,168.921L271.161,168.921L271.161,173.974L266.767,173.974ZM266.767,204.712L266.767,178.784L271.161,178.784L271.161,204.712L266.767,204.712ZM278.388,174.023L278.388,168.921L282.783,168.921L282.783,174.023L278.388,174.023ZM272.822,214.77L273.652,211.035C274.531,211.263 275.222,211.377 275.727,211.377C276.622,211.377 277.289,211.08 277.729,210.485C278.168,209.891 278.388,208.406 278.388,206.03L278.388,178.784L282.783,178.784L282.783,206.128C282.783,209.318 282.368,211.539 281.537,212.793C280.48,214.42 278.722,215.234 276.264,215.234C275.076,215.234 273.928,215.079 272.822,214.77Z" style="fill:rgb(255,11,11);fill-rule:nonzero;"/>
            <path d="M288.959,204.712L288.959,168.921L293.354,168.921L293.354,189.331L303.754,178.784L309.443,178.784L299.531,188.403L310.444,204.712L305.024,204.712L296.454,191.455L293.354,194.433L293.354,204.712L288.959,204.712Z" style="fill:rgb(255,11,11);fill-rule:nonzero;"/>
            <rect x="313.837" y="168.921" width="4.395" height="35.791" style="fill:rgb(255,11,11);fill-rule:nonzero;"/>
            <path d="M325.043,204.712L325.043,178.784L328.974,178.784L328.974,182.422C329.788,181.152 330.87,180.131 332.221,179.358C333.572,178.584 335.11,178.198 336.835,178.198C338.756,178.198 340.331,178.597 341.559,179.394C342.788,180.192 343.655,181.307 344.16,182.739C346.21,179.712 348.88,178.198 352.167,178.198C354.739,178.198 356.716,178.91 358.1,180.334C359.483,181.758 360.175,183.951 360.175,186.914L360.175,204.712L355.805,204.712L355.805,188.379C355.805,186.621 355.663,185.355 355.378,184.582C355.093,183.809 354.576,183.186 353.827,182.714C353.079,182.242 352.2,182.006 351.191,182.006C349.368,182.006 347.854,182.613 346.65,183.825C345.445,185.038 344.843,186.979 344.843,189.648L344.843,204.712L340.449,204.712L340.449,187.866C340.449,185.913 340.091,184.448 339.374,183.471C338.658,182.495 337.486,182.006 335.859,182.006C334.622,182.006 333.478,182.332 332.429,182.983C331.379,183.634 330.618,184.586 330.146,185.839C329.674,187.093 329.438,188.899 329.438,191.259L329.438,204.712L325.043,204.712Z" style="fill:rgb(255,11,11);fill-rule:nonzero;"/>
            <path d="M366.694,204.712L366.694,178.784L370.649,178.784L370.649,182.47C372.553,179.622 375.304,178.198 378.901,178.198C380.463,178.198 381.9,178.479 383.21,179.04C384.52,179.602 385.501,180.338 386.152,181.25C386.803,182.161 387.258,183.243 387.519,184.497C387.682,185.311 387.763,186.735 387.763,188.769L387.763,204.712L383.369,204.712L383.369,188.94C383.369,187.15 383.198,185.811 382.856,184.924C382.514,184.037 381.908,183.329 381.037,182.8C380.166,182.271 379.145,182.006 377.973,182.006C376.101,182.006 374.486,182.601 373.127,183.789C371.768,184.977 371.088,187.231 371.088,190.551L371.088,204.712L366.694,204.712Z" style="fill:rgb(255,11,11);fill-rule:nonzero;"/>
            <path d="M392.866,191.748C392.866,186.946 394.2,183.39 396.869,181.079C399.099,179.158 401.817,178.198 405.024,178.198C408.588,178.198 411.502,179.366 413.764,181.701C416.026,184.037 417.158,187.264 417.158,191.381C417.158,194.718 416.657,197.343 415.656,199.255C414.655,201.167 413.198,202.653 411.286,203.711C409.374,204.769 407.286,205.298 405.024,205.298C401.394,205.298 398.46,204.134 396.223,201.806C393.985,199.479 392.866,196.126 392.866,191.748ZM397.382,191.748C397.382,195.068 398.106,197.554 399.555,199.206C401.004,200.858 402.827,201.684 405.024,201.684C407.205,201.684 409.02,200.854 410.468,199.194C411.917,197.534 412.641,195.003 412.641,191.601C412.641,188.395 411.913,185.966 410.456,184.314C408.999,182.662 407.189,181.836 405.024,181.836C402.827,181.836 401.004,182.658 399.555,184.301C398.106,185.945 397.382,188.427 397.382,191.748Z" style="fill:rgb(255,11,11);fill-rule:nonzero;"/>
            <path d="M422.309,214.648L422.309,178.784L426.313,178.784L426.313,182.153C427.257,180.835 428.323,179.846 429.511,179.187C430.699,178.527 432.14,178.198 433.832,178.198C436.046,178.198 437.999,178.768 439.692,179.907C441.384,181.046 442.662,182.653 443.525,184.729C444.387,186.804 444.819,189.078 444.819,191.552C444.819,194.205 444.343,196.594 443.39,198.718C442.438,200.842 441.055,202.47 439.24,203.601C437.425,204.732 435.517,205.298 433.515,205.298C432.05,205.298 430.736,204.988 429.572,204.37C428.408,203.751 427.452,202.97 426.703,202.026L426.703,214.648L422.309,214.648ZM426.288,191.894C426.288,195.231 426.964,197.697 428.315,199.292C429.666,200.887 431.301,201.684 433.222,201.684C435.175,201.684 436.848,200.858 438.239,199.206C439.631,197.554 440.327,194.995 440.327,191.528C440.327,188.224 439.647,185.75 438.288,184.106C436.929,182.462 435.305,181.64 433.417,181.64C431.546,181.64 429.89,182.515 428.449,184.265C427.009,186.014 426.288,188.558 426.288,191.894Z" style="fill:rgb(255,11,11);fill-rule:nonzero;"/>
            <path d="M466.645,214.648L466.645,201.953C465.961,202.913 465.005,203.711 463.776,204.345C462.547,204.98 461.241,205.298 459.858,205.298C456.782,205.298 454.133,204.069 451.911,201.611C449.689,199.153 448.578,195.784 448.578,191.504C448.578,188.899 449.03,186.564 449.933,184.497C450.837,182.43 452.147,180.863 453.864,179.797C455.581,178.731 457.465,178.198 459.516,178.198C462.722,178.198 465.245,179.549 467.084,182.251L467.084,178.784L471.039,178.784L471.039,214.648L466.645,214.648ZM453.095,191.674C453.095,195.011 453.795,197.513 455.195,199.182C456.594,200.85 458.271,201.684 460.224,201.684C462.096,201.684 463.707,200.891 465.058,199.304C466.409,197.717 467.084,195.304 467.084,192.065C467.084,188.615 466.372,186.019 464.948,184.277C463.524,182.535 461.852,181.665 459.931,181.665C458.027,181.665 456.411,182.474 455.085,184.094C453.758,185.713 453.095,188.24 453.095,191.674Z" style="fill:rgb(255,11,11);fill-rule:nonzero;"/>
            <path d="M477.875,204.712L477.875,178.784L481.83,178.784L481.83,182.714C482.84,180.875 483.771,179.663 484.626,179.077C485.48,178.491 486.42,178.198 487.446,178.198C488.927,178.198 490.432,178.67 491.962,179.614L490.449,183.691C489.374,183.056 488.3,182.739 487.226,182.739C486.266,182.739 485.403,183.028 484.638,183.606C483.873,184.183 483.328,184.985 483.002,186.01C482.514,187.573 482.27,189.282 482.27,191.137L482.27,204.712L477.875,204.712Z" style="fill:rgb(255,11,11);fill-rule:nonzero;"/>
            <path d="M492.817,196.972L497.162,196.289C497.407,198.03 498.086,199.365 499.201,200.293C500.316,201.22 501.874,201.684 503.876,201.684C505.895,201.684 507.392,201.273 508.369,200.451C509.345,199.629 509.833,198.665 509.833,197.558C509.833,196.565 509.402,195.784 508.539,195.214C507.937,194.824 506.44,194.327 504.047,193.725C500.825,192.911 498.591,192.207 497.346,191.613C496.1,191.019 495.156,190.197 494.514,189.148C493.871,188.098 493.549,186.938 493.549,185.669C493.549,184.513 493.814,183.443 494.343,182.458C494.872,181.473 495.592,180.656 496.503,180.005C497.187,179.5 498.119,179.073 499.299,178.723C500.479,178.373 501.744,178.198 503.095,178.198C505.13,178.198 506.916,178.491 508.454,179.077C509.992,179.663 511.127,180.456 511.86,181.457C512.592,182.458 513.097,183.797 513.373,185.473L509.077,186.059C508.881,184.725 508.316,183.683 507.38,182.934C506.444,182.186 505.121,181.811 503.412,181.811C501.394,181.811 499.954,182.145 499.091,182.812C498.229,183.479 497.797,184.261 497.797,185.156C497.797,185.726 497.976,186.238 498.334,186.694C498.692,187.166 499.254,187.557 500.019,187.866C500.458,188.029 501.752,188.403 503.901,188.989C507.009,189.819 509.178,190.499 510.407,191.027C511.636,191.556 512.6,192.325 513.3,193.335C514,194.344 514.35,195.597 514.35,197.094C514.35,198.559 513.923,199.939 513.068,201.233C512.214,202.527 510.981,203.527 509.369,204.235C507.758,204.943 505.935,205.298 503.901,205.298C500.532,205.298 497.964,204.598 496.198,203.198C494.432,201.798 493.305,199.723 492.817,196.972Z" style="fill:rgb(255,11,11);fill-rule:nonzero;"/>
            <path d="M529.169,200.781L529.804,204.663C528.567,204.923 527.46,205.053 526.484,205.053C524.889,205.053 523.652,204.801 522.773,204.297C521.894,203.792 521.275,203.129 520.917,202.307C520.559,201.485 520.38,199.756 520.38,197.119L520.38,182.202L517.158,182.202L517.158,178.784L520.38,178.784L520.38,172.363L524.75,169.726L524.75,178.784L529.169,178.784L529.169,182.202L524.75,182.202L524.75,197.363C524.75,198.616 524.828,199.422 524.982,199.78C525.137,200.138 525.389,200.423 525.739,200.634C526.089,200.846 526.59,200.952 527.241,200.952C527.729,200.952 528.372,200.895 529.169,200.781Z" style="fill:rgb(255,11,11);fill-rule:nonzero;"/>
            <path d="M550.458,204.712L550.458,200.903C548.44,203.833 545.698,205.298 542.231,205.298C540.701,205.298 539.273,205.005 537.946,204.419C536.62,203.833 535.635,203.096 534.992,202.209C534.349,201.322 533.897,200.236 533.637,198.95C533.458,198.087 533.369,196.72 533.369,194.848L533.369,178.784L537.763,178.784L537.763,193.164C537.763,195.459 537.853,197.005 538.032,197.802C538.308,198.958 538.894,199.865 539.789,200.525C540.685,201.184 541.791,201.513 543.11,201.513C544.428,201.513 545.665,201.176 546.821,200.5C547.976,199.825 548.794,198.905 549.274,197.741C549.754,196.578 549.994,194.889 549.994,192.675L549.994,178.784L554.389,178.784L554.389,204.712L550.458,204.712Z" style="fill:rgb(255,11,11);fill-rule:nonzero;"/>
            <path d="M568.476,204.712L558.613,178.784L563.251,178.784L568.818,194.311C569.42,195.988 569.973,197.729 570.478,199.536C570.869,198.169 571.414,196.525 572.114,194.604L577.875,178.784L582.392,178.784L572.577,204.712L568.476,204.712Z" style="fill:rgb(255,11,11);fill-rule:nonzero;"/>
            <path d="M591.059,204.712L583.124,178.784L587.665,178.784L591.791,193.75L593.329,199.316C593.395,199.039 593.842,197.257 594.672,193.969L598.798,178.784L603.315,178.784L607.197,193.823L608.491,198.779L609.98,193.774L614.423,178.784L618.696,178.784L610.59,204.712L606.025,204.712L601.899,189.184L600.898,184.765L595.649,204.712L591.059,204.712Z" style="fill:rgb(255,11,11);fill-rule:nonzero;"/>
            <path d="M619.452,204.712L628.925,191.235L620.161,178.784L625.654,178.784L629.633,184.863C630.382,186.019 630.984,186.987 631.44,187.768C632.156,186.694 632.815,185.742 633.417,184.912L637.787,178.784L643.036,178.784L634.077,190.991L643.72,204.712L638.325,204.712L633.002,196.655L631.586,194.482L624.775,204.712L619.452,204.712Z" style="fill:rgb(255,11,11);fill-rule:nonzero;"/>
            <path d="M647.187,214.697L646.699,210.571C647.659,210.831 648.497,210.962 649.213,210.962C650.19,210.962 650.971,210.799 651.557,210.473C652.143,210.148 652.623,209.692 652.997,209.106C653.274,208.667 653.722,207.576 654.34,205.835C654.422,205.59 654.552,205.232 654.731,204.76L644.892,178.784L649.628,178.784L655.024,193.798C655.724,195.703 656.35,197.705 656.904,199.804C657.408,197.786 658.01,195.817 658.71,193.896L664.252,178.784L668.647,178.784L658.784,205.151C657.726,207.999 656.904,209.961 656.318,211.035C655.536,212.483 654.641,213.545 653.632,214.221C652.623,214.896 651.419,215.234 650.019,215.234C649.173,215.234 648.229,215.055 647.187,214.697Z" style="fill:rgb(255,11,11);fill-rule:nonzero;"/>
            <path d="M670.063,204.712L670.063,201.147L686.567,182.202C684.695,182.299 683.043,182.348 681.611,182.348L671.039,182.348L671.039,178.784L692.231,178.784L692.231,181.689L678.193,198.144L675.483,201.147C677.452,201.001 679.3,200.927 681.025,200.927L693.012,200.927L693.012,204.712L670.063,204.712Z" style="fill:rgb(255,11,11);fill-rule:nonzero;"/>
        </g>
    </g>
</svg>
