<?xml version="1.0" encoding="utf-8" standalone="no"?>
<!DOCTYPE svg PUBLIC "-//W3C//DTD SVG 1.1//EN" "http://www.w3.org/Graphics/SVG/1.1/DTD/svg11.dtd">
<svg version="1.1" width="612pt" height="792pt" viewBox="0 0 612 792" overflow="visible" xmlns="http://www.w3.org/2000/svg">
  <path d="M342.7186,419.3544 L350.1015,419.3544 L350.1015,411.9715 L342.7186,411.9715 z" stroke="#000000" stroke-width="0.24" fill="none" />
  <path d="M335.3357,419.3544 L342.7186,419.3544 L342.7186,411.9715 L335.3357,411.9715 z" stroke="#000000" stroke-width="0.24" fill="none" />
  <path d="M327.9528,419.3544 L335.3357,419.3544 L335.3357,411.9715 L327.9528,411.9715 z" stroke="#000000" stroke-width="0.24" fill="none" />
  <path d="M320.5698,419.3544 L327.9528,419.3544 L327.9528,411.9715 L320.5698,411.9715 z" stroke="#000000" stroke-width="0.24" fill="none" />
  <path d="M313.1869,419.3544 L320.5698,419.3544 L320.5698,411.9715 L313.1869,411.9715 z" stroke="#000000" stroke-width="0.24" fill="none" />
  <path d="M305.804,419.3544 L313.1869,419.3544 L313.1869,411.9715 L305.804,411.9715 z" stroke="#000000" stroke-width="0.24" fill="none" />
  <path d="M298.4211,419.3544 L305.804,419.3544 L305.804,411.9715 L298.4211,411.9715 z" stroke="#000000" stroke-width="0.24" fill="none" />
  <path d="M291.0381,419.3544 L298.4211,419.3544 L298.4211,411.9715 L291.0381,411.9715 z" stroke="#000000" stroke-width="0.24" fill="none" />
  <path d="M283.6552,419.3544 L291.0381,419.3544 L291.0381,411.9715 L283.6552,411.9715 z" stroke="#000000" stroke-width="0.24" fill="none" />
  <path d="M276.2723,419.3544 L283.6552,419.3544 L283.6552,411.9715 L276.2723,411.9715 z" stroke="#000000" stroke-width="0.24" fill="none" />
  <path d="M268.8893,419.3544 L276.2723,419.3544 L276.2723,411.9715 L268.8893,411.9715 z" stroke="#000000" stroke-width="0.24" fill="none" />
  <path d="M261.5064,419.3544 L268.8893,419.3544 L268.8893,411.9715 L261.5064,411.9715 z" stroke="#000000" stroke-width="0.24" fill="none" />
  <path d="M254.1235,419.3544 L261.5064,419.3544 L261.5064,411.9715 L254.1235,411.9715 z" stroke="#000000" stroke-width="0.24" fill="none" />
  <path d="M246.7406,419.3544 L254.1235,419.3544 L254.1235,411.9715 L246.7406,411.9715 z" stroke="#000000" stroke-width="0.24" fill="none" />
  <path d="M239.3577,419.3544 L246.7406,419.3544 L246.7406,411.9715 L239.3577,411.9715 z" stroke="#000000" stroke-width="0.24" fill="none" />
  <path d="M231.9747,419.3544 L239.3577,419.3544 L239.3577,411.9715 L231.9747,411.9715 z" stroke="#000000" stroke-width="0.24" fill="none" />
  <path d="M224.5918,419.3544 L231.9747,419.3544 L231.9747,411.9715 L224.5918,411.9715 z" stroke="#000000" stroke-width="0.24" fill="none" />
  <path d="M217.2089,419.3544 L224.5918,419.3544 L224.5918,411.9715 L217.2089,411.9715 z" stroke="#000000" stroke-width="0.24" fill="none" />
  <path d="M209.8259,419.3544 L217.2089,419.3544 L217.2089,411.9715 L209.8259,411.9715 z" stroke="#000000" stroke-width="0.24" fill="none" />
  <path d="M202.443,419.3544 L209.8259,419.3544 L209.8259,411.9715 L202.443,411.9715 z" stroke="#000000" stroke-width="0.24" fill="none" />
  <path d="M195.0601,419.3544 L202.443,419.3544 L202.443,411.9715 L195.0601,411.9715 z" stroke="#000000" stroke-width="0.24" fill="none" />
  <path d="M187.6772,419.3544 L195.0601,419.3544 L195.0601,411.9715 L187.6772,411.9715 z" stroke="#000000" stroke-width="0.24" fill="none" />
  <path d="M180.2942,419.3544 L187.6772,419.3544 L187.6772,411.9715 L180.2942,411.9715 z" stroke="#000000" stroke-width="0.24" fill="none" />
  <path d="M172.9113,419.3544 L180.2942,419.3544 L180.2942,411.9715 L172.9113,411.9715 z" stroke="#000000" stroke-width="0.24" fill="none" />
  <path d="M357.4845,411.9715 L364.8674,411.9715 L364.8674,404.5886 L357.4845,404.5886 z" stroke="#000000" stroke-width="0.24" fill="none" />
  <path d="M350.1015,411.9715 L357.4845,411.9715 L357.4845,404.5886 L350.1015,404.5886 z" stroke="#000000" stroke-width="0.24" fill="none" />
  <path d="M342.7186,411.9715 L350.1015,411.9715 L350.1015,404.5886 L342.7186,404.5886 z" stroke="#000000" stroke-width="0.24" fill="none" />
  <path d="M335.3357,411.9715 L342.7186,411.9715 L342.7186,404.5886 L335.3357,404.5886 z" stroke="#000000" stroke-width="0.24" fill="none" />
  <path d="M327.9528,411.9715 L335.3357,411.9715 L335.3357,404.5886 L327.9528,404.5886 z" stroke="#000000" stroke-width="0.24" fill="none" />
  <path d="M320.5698,411.9715 L327.9528,411.9715 L327.9528,404.5886 L320.5698,404.5886 z" stroke="#000000" stroke-width="0.24" fill="none" />
  <path d="M313.1869,411.9715 L320.5698,411.9715 L320.5698,404.5886 L313.1869,404.5886 z" stroke="#000000" stroke-width="0.24" fill="none" />
  <path d="M305.804,411.9715 L313.1869,411.9715 L313.1869,404.5886 L305.804,404.5886 z" stroke="#000000" stroke-width="0.24" fill="none" />
  <path d="M298.4211,411.9715 L305.804,411.9715 L305.804,404.5886 L298.4211,404.5886 z" stroke="#000000" stroke-width="0.24" fill="none" />
  <path d="M291.0381,411.9715 L298.4211,411.9715 L298.4211,404.5886 L291.0381,404.5886 z" stroke="#000000" stroke-width="0.24" fill="none" />
  <path d="M283.6552,411.9715 L291.0381,411.9715 L291.0381,404.5886 L283.6552,404.5886 z" stroke="#000000" stroke-width="0.24" fill="none" />
  <path d="M276.2723,411.9715 L283.6552,411.9715 L283.6552,404.5886 L276.2723,404.5886 z" stroke="#000000" stroke-width="0.24" fill="none" />
  <path d="M268.8893,411.9715 L276.2723,411.9715 L276.2723,404.5886 L268.8893,404.5886 z" stroke="#000000" stroke-width="0.24" fill="none" />
  <path d="M261.5064,411.9715 L268.8893,411.9715 L268.8893,404.5886 L261.5064,404.5886 z" stroke="#000000" stroke-width="0.24" fill="none" />
  <path d="M254.1235,411.9715 L261.5064,411.9715 L261.5064,404.5886 L254.1235,404.5886 z" stroke="#000000" stroke-width="0.24" fill="none" />
  <path d="M246.7406,411.9715 L254.1235,411.9715 L254.1235,404.5886 L246.7406,404.5886 z" stroke="#000000" stroke-width="0.24" fill="none" />
  <path d="M239.3577,411.9715 L246.7406,411.9715 L246.7406,404.5886 L239.3577,404.5886 z" stroke="#000000" stroke-width="0.24" fill="none" />
  <path d="M231.9747,411.9715 L239.3577,411.9715 L239.3577,404.5886 L231.9747,404.5886 z" stroke="#000000" stroke-width="0.24" fill="none" />
  <path d="M224.5918,411.9715 L231.9747,411.9715 L231.9747,404.5886 L224.5918,404.5886 z" stroke="#000000" stroke-width="0.24" fill="none" />
  <path d="M217.2089,411.9715 L224.5918,411.9715 L224.5918,404.5886 L217.2089,404.5886 z" stroke="#000000" stroke-width="0.24" fill="none" />
  <path d="M209.8259,411.9715 L217.2089,411.9715 L217.2089,404.5886 L209.8259,404.5886 z" stroke="#000000" stroke-width="0.24" fill="none" />
  <path d="M202.443,411.9715 L209.8259,411.9715 L209.8259,404.5886 L202.443,404.5886 z" stroke="#000000" stroke-width="0.24" fill="none" />
  <path d="M195.0601,411.9715 L202.443,411.9715 L202.443,404.5886 L195.0601,404.5886 z" stroke="#000000" stroke-width="0.24" fill="none" />
  <path d="M187.6772,411.9715 L195.0601,411.9715 L195.0601,404.5886 L187.6772,404.5886 z" stroke="#000000" stroke-width="0.24" fill="none" />
  <path d="M180.2942,411.9715 L187.6772,411.9715 L187.6772,404.5886 L180.2942,404.5886 z" stroke="#000000" stroke-width="0.24" fill="none" />
  <path d="M172.9113,411.9715 L180.2942,411.9715 L180.2942,404.5886 L172.9113,404.5886 z" stroke="#000000" stroke-width="0.24" fill="none" />
  <path d="M357.4845,419.3544 L364.8674,419.3544 L364.8674,411.9715 L357.4845,411.9715 z" stroke="#000000" stroke-width="0.24" fill="none" />
  <path d="M350.1015,419.3544 L357.4845,419.3544 L357.4845,411.9715 L350.1015,411.9715 z" stroke="#000000" stroke-width="0.24" fill="none" />
</svg>