<?xml version="1.0" encoding="UTF-8" standalone="no"?>
<!DOCTYPE svg PUBLIC "-//W3C//DTD SVG 1.1//EN" "http://www.w3.org/Graphics/SVG/1.1/DTD/svg11.dtd">
<svg width="100%" height="100%" viewBox="0 0 517 147" version="1.1" xmlns="http://www.w3.org/2000/svg" xmlns:xlink="http://www.w3.org/1999/xlink" xml:space="preserve" xmlns:serif="http://www.serif.com/" style="fill-rule:evenodd;clip-rule:evenodd;stroke-linejoin:round;stroke-miterlimit:2;">
    <g transform="matrix(1,0,0,1,-242.508,-206.19)">
        <g>
            <g transform="matrix(3.96,0,0,3.96,-772.981,-872.491)">
                <path d="M261.143,308.185L274.888,272.394L279.99,272.394L294.639,308.185L289.243,308.185L285.068,297.345L270.103,297.345L266.172,308.185L261.143,308.185ZM271.47,293.488L283.604,293.488L279.868,283.576C278.729,280.565 277.883,278.091 277.329,276.154C276.873,278.449 276.231,280.728 275.4,282.99L271.47,293.488Z" style="fill:rgb(250,255,68);fill-rule:nonzero;"/>
                <path d="M298.228,308.185L298.228,272.394L302.964,272.394L302.964,290.143L320.737,272.394L327.158,272.394L312.144,286.896L327.817,308.185L321.567,308.185L308.823,290.07L302.964,295.783L302.964,308.185L298.228,308.185Z" style="fill:rgb(250,255,68);fill-rule:nonzero;"/>
                <path d="M331.577,308.185L331.577,272.394L336.314,272.394L336.314,303.962L353.941,303.962L353.941,308.185L331.577,308.185Z" style="fill:rgb(250,255,68);fill-rule:nonzero;"/>
                <path d="M359.58,308.185L359.58,272.394L373.081,272.394C375.457,272.394 377.272,272.508 378.525,272.736C380.283,273.029 381.756,273.587 382.944,274.408C384.133,275.23 385.089,276.382 385.813,277.863C386.537,279.344 386.899,280.972 386.899,282.746C386.899,285.789 385.931,288.365 383.994,290.473C382.057,292.581 378.558,293.635 373.496,293.635L364.316,293.635L364.316,308.185L359.58,308.185ZM364.316,289.411L373.569,289.411C376.629,289.411 378.802,288.841 380.088,287.702C381.374,286.563 382.017,284.959 382.017,282.892C382.017,281.395 381.638,280.113 380.881,279.047C380.125,277.981 379.128,277.277 377.891,276.935C377.093,276.724 375.62,276.618 373.472,276.618L364.316,276.618L364.316,289.411Z" style="fill:rgb(250,255,68);fill-rule:nonzero;"/>
            </g>
            <g transform="matrix(1.10459,0,0,0.994133,24.3976,-61.3781)">
                <rect x="197.457" y="404.699" width="10.693" height="11.881" style="fill:rgb(0,71,227);"/>
            </g>
        </g>
    </g>
</svg>
