<?xml version="1.0" encoding="UTF-8" standalone="no"?>
<!DOCTYPE svg PUBLIC "-//W3C//DTD SVG 1.1//EN" "http://www.w3.org/Graphics/SVG/1.1/DTD/svg11.dtd">
<svg width="100%" height="100%" viewBox="0 0 1551 48" version="1.1" xmlns="http://www.w3.org/2000/svg" xmlns:xlink="http://www.w3.org/1999/xlink" xml:space="preserve" xmlns:serif="http://www.serif.com/" style="fill-rule:evenodd;clip-rule:evenodd;stroke-linejoin:round;stroke-miterlimit:2;">
    <g transform="matrix(1,0,0,1,-43.5336,-278.508)">
        <g transform="matrix(1,0,0,1,-240.27,-329.873)">
            <path d="M283.803,648.096L297.548,612.305L302.651,612.305L317.299,648.096L311.904,648.096L307.729,637.256L292.763,637.256L288.833,648.096L283.803,648.096ZM294.13,633.398L306.264,633.398L302.529,623.486C301.39,620.475 300.543,618.001 299.99,616.064C299.534,618.359 298.891,620.638 298.061,622.9L294.13,633.398Z" style="fill:rgb(47,88,220);fill-rule:nonzero;"/>
            <path d="M320.888,648.096L320.888,612.305L334.316,612.305C337.05,612.305 339.244,612.667 340.896,613.391C342.548,614.115 343.842,615.23 344.777,616.736C345.713,618.241 346.181,619.816 346.181,621.46C346.181,622.99 345.766,624.43 344.936,625.781C344.106,627.132 342.853,628.223 341.176,629.053C343.341,629.687 345.005,630.77 346.169,632.3C347.333,633.83 347.915,635.636 347.915,637.72C347.915,639.396 347.561,640.954 346.853,642.395C346.145,643.835 345.27,644.946 344.228,645.727C343.186,646.509 341.88,647.099 340.31,647.497C338.739,647.896 336.814,648.096 334.536,648.096L320.888,648.096ZM325.625,627.344L333.364,627.344C335.463,627.344 336.969,627.205 337.88,626.929C339.085,626.571 339.992,625.976 340.603,625.146C341.213,624.316 341.518,623.275 341.518,622.021C341.518,620.833 341.233,619.787 340.664,618.884C340.094,617.981 339.28,617.362 338.222,617.029C337.164,616.695 335.35,616.528 332.778,616.528L325.625,616.528L325.625,627.344ZM325.625,643.872L334.536,643.872C336.066,643.872 337.14,643.815 337.758,643.701C338.849,643.506 339.76,643.18 340.493,642.724C341.225,642.269 341.827,641.606 342.299,640.735C342.771,639.864 343.007,638.859 343.007,637.72C343.007,636.385 342.666,635.225 341.982,634.241C341.298,633.256 340.35,632.564 339.138,632.165C337.925,631.767 336.18,631.567 333.901,631.567L325.625,631.567L325.625,643.872Z" style="fill:rgb(47,88,220);fill-rule:nonzero;"/>
            <path d="M379.97,635.547L384.707,636.743C383.714,640.633 381.928,643.599 379.348,645.642C376.768,647.685 373.615,648.706 369.887,648.706C366.03,648.706 362.893,647.921 360.476,646.35C358.059,644.779 356.22,642.505 354.958,639.526C353.697,636.548 353.066,633.349 353.066,629.932C353.066,626.204 353.778,622.953 355.202,620.178C356.626,617.403 358.653,615.295 361.281,613.855C363.91,612.414 366.803,611.694 369.961,611.694C373.541,611.694 376.552,612.606 378.994,614.429C381.435,616.252 383.136,618.815 384.096,622.119L379.433,623.218C378.603,620.613 377.399,618.717 375.82,617.529C374.241,616.341 372.255,615.747 369.863,615.747C367.112,615.747 364.813,616.406 362.966,617.724C361.119,619.043 359.821,620.813 359.072,623.035C358.323,625.256 357.949,627.547 357.949,629.907C357.949,632.951 358.392,635.608 359.279,637.878C360.166,640.149 361.546,641.846 363.418,642.969C365.289,644.092 367.316,644.653 369.497,644.653C372.15,644.653 374.396,643.888 376.235,642.358C378.074,640.828 379.319,638.558 379.97,635.547Z" style="fill:rgb(47,88,220);fill-rule:nonzero;"/>
            <path d="M390.542,648.096L390.542,612.305L402.871,612.305C405.654,612.305 407.778,612.475 409.243,612.817C411.294,613.289 413.043,614.144 414.492,615.381C416.38,616.976 417.792,619.014 418.728,621.496C419.664,623.979 420.131,626.815 420.131,630.005C420.131,632.723 419.814,635.132 419.179,637.231C418.545,639.331 417.731,641.068 416.738,642.444C415.745,643.819 414.659,644.901 413.479,645.691C412.299,646.48 410.874,647.078 409.206,647.485C407.538,647.892 405.621,648.096 403.457,648.096L390.542,648.096ZM395.278,643.872L402.92,643.872C405.28,643.872 407.131,643.652 408.474,643.213C409.817,642.773 410.887,642.155 411.684,641.357C412.807,640.234 413.682,638.725 414.309,636.828C414.935,634.932 415.249,632.633 415.249,629.932C415.249,626.188 414.634,623.311 413.405,621.301C412.177,619.291 410.683,617.944 408.925,617.261C407.656,616.772 405.613,616.528 402.797,616.528L395.278,616.528L395.278,643.872Z" style="fill:rgb(47,88,220);fill-rule:nonzero;"/>
            <path d="M426.748,648.096L426.748,612.305L452.627,612.305L452.627,616.528L431.484,616.528L431.484,627.49L451.284,627.49L451.284,631.689L431.484,631.689L431.484,643.872L453.457,643.872L453.457,648.096L426.748,648.096Z" style="fill:rgb(47,88,220);fill-rule:nonzero;"/>
            <path d="M460.244,648.096L460.244,612.305L484.389,612.305L484.389,616.528L464.98,616.528L464.98,627.612L481.777,627.612L481.777,631.836L464.98,631.836L464.98,648.096L460.244,648.096Z" style="fill:rgb(47,88,220);fill-rule:nonzero;"/>
            <path d="M507.29,634.058L507.29,629.858L522.451,629.834L522.451,643.115C520.123,644.971 517.723,646.366 515.249,647.302C512.775,648.238 510.236,648.706 507.631,648.706C504.116,648.706 500.922,647.953 498.049,646.448C495.176,644.942 493.007,642.765 491.543,639.917C490.078,637.069 489.345,633.887 489.345,630.371C489.345,626.888 490.074,623.637 491.53,620.618C492.987,617.598 495.083,615.356 497.817,613.891C500.551,612.427 503.701,611.694 507.265,611.694C509.853,611.694 512.193,612.113 514.284,612.952C516.376,613.79 518.016,614.958 519.204,616.455C520.392,617.952 521.295,619.905 521.914,622.314L517.641,623.486C517.104,621.663 516.437,620.231 515.639,619.189C514.842,618.148 513.702,617.314 512.221,616.687C510.74,616.06 509.096,615.747 507.29,615.747C505.125,615.747 503.253,616.077 501.674,616.736C500.096,617.395 498.822,618.262 497.854,619.336C496.885,620.41 496.132,621.59 495.595,622.876C494.684,625.089 494.228,627.49 494.228,630.078C494.228,633.268 494.777,635.937 495.876,638.086C496.975,640.234 498.574,641.829 500.673,642.871C502.773,643.913 505.003,644.433 507.363,644.433C509.414,644.433 511.416,644.039 513.369,643.249C515.322,642.46 516.803,641.618 517.812,640.723L517.812,634.058L507.29,634.058Z" style="fill:rgb(47,88,220);fill-rule:nonzero;"/>
            <path d="M529.58,648.096L529.58,612.305L534.316,612.305L534.316,627.002L552.92,627.002L552.92,612.305L557.656,612.305L557.656,648.096L552.92,648.096L552.92,631.225L534.316,631.225L534.316,648.096L529.58,648.096Z" style="fill:rgb(47,88,220);fill-rule:nonzero;"/>
        </g>
        <g transform="matrix(1,0,0,1,-99.1861,-555.87)">
            <rect x="433.568" y="838.911" width="4.736" height="35.791" style="fill:rgb(47,88,220);fill-rule:nonzero;"/>
        </g>
        <g transform="matrix(1,0,0,1,-400.974,-802.143)">
            <path d="M747.595,1109.28L751.867,1108.7C751.981,1111.43 752.494,1113.3 753.406,1114.31C754.317,1115.32 755.578,1115.83 757.19,1115.83C758.378,1115.83 759.403,1115.55 760.266,1115.01C761.129,1114.46 761.723,1113.72 762.048,1112.79C762.374,1111.85 762.536,1110.36 762.536,1108.31L762.536,1083.65L767.273,1083.65L767.273,1108.04C767.273,1111.03 766.911,1113.35 766.186,1114.99C765.462,1116.64 764.315,1117.89 762.744,1118.75C761.173,1119.62 759.33,1120.05 757.214,1120.05C754.073,1120.05 751.668,1119.14 750,1117.34C748.331,1115.53 747.53,1112.85 747.595,1109.28Z" style="fill:rgb(47,88,220);fill-rule:nonzero;"/>
            <path d="M774.817,1119.44L774.817,1083.65L779.553,1083.65L779.553,1101.4L797.326,1083.65L803.747,1083.65L788.733,1098.15L804.407,1119.44L798.157,1119.44L785.412,1101.32L779.553,1107.04L779.553,1119.44L774.817,1119.44Z" style="fill:rgb(47,88,220);fill-rule:nonzero;"/>
            <path d="M808.166,1119.44L808.166,1083.65L812.903,1083.65L812.903,1115.21L830.53,1115.21L830.53,1119.44L808.166,1119.44Z" style="fill:rgb(47,88,220);fill-rule:nonzero;"/>
            <path d="M836.023,1119.44L836.023,1083.65L843.152,1083.65L851.623,1108.99C852.405,1111.35 852.974,1113.12 853.332,1114.29C853.739,1112.98 854.374,1111.07 855.237,1108.55L863.806,1083.65L870.178,1083.65L870.178,1119.44L865.613,1119.44L865.613,1089.48L855.212,1119.44L850.94,1119.44L840.588,1088.97L840.588,1119.44L836.023,1119.44Z" style="fill:rgb(47,88,220);fill-rule:nonzero;"/>
            <path d="M877.771,1119.44L877.771,1083.65L882.629,1083.65L901.428,1111.75L901.428,1083.65L905.969,1083.65L905.969,1119.44L901.111,1119.44L882.312,1091.31L882.312,1119.44L877.771,1119.44Z" style="fill:rgb(47,88,220);fill-rule:nonzero;"/>
            <path d="M912.488,1102.01C912.488,1096.07 914.083,1091.41 917.273,1088.05C920.463,1084.69 924.581,1083.01 929.626,1083.01C932.93,1083.01 935.909,1083.8 938.562,1085.38C941.215,1086.96 943.237,1089.16 944.629,1091.98C946.02,1094.81 946.716,1098.01 946.716,1101.59C946.716,1105.22 945.984,1108.47 944.519,1111.33C943.054,1114.2 940.979,1116.37 938.293,1117.84C935.608,1119.31 932.711,1120.05 929.602,1120.05C926.233,1120.05 923.222,1119.23 920.569,1117.61C917.916,1115.98 915.906,1113.76 914.538,1110.94C913.171,1108.13 912.488,1105.15 912.488,1102.01ZM917.37,1102.08C917.37,1106.39 918.53,1109.79 920.849,1112.27C923.169,1114.75 926.078,1116 929.577,1116C933.142,1116 936.076,1114.74 938.379,1112.24C940.682,1109.73 941.833,1106.17 941.833,1101.57C941.833,1098.65 941.341,1096.11 940.356,1093.94C939.372,1091.76 937.931,1090.08 936.035,1088.88C934.139,1087.69 932.011,1087.09 929.651,1087.09C926.298,1087.09 923.413,1088.24 920.996,1090.54C918.579,1092.85 917.37,1096.69 917.37,1102.08Z" style="fill:rgb(47,88,220);fill-rule:nonzero;"/>
            <path d="M952.82,1119.44L952.82,1083.65L966.321,1083.65C968.697,1083.65 970.512,1083.76 971.765,1083.99C973.523,1084.28 974.996,1084.84 976.184,1085.66C977.372,1086.48 978.328,1087.63 979.052,1089.12C979.777,1090.6 980.139,1092.22 980.139,1094C980.139,1097.04 979.171,1099.62 977.234,1101.73C975.297,1103.83 971.797,1104.89 966.736,1104.89L957.556,1104.89L957.556,1119.44L952.82,1119.44ZM957.556,1100.66L966.809,1100.66C969.869,1100.66 972.042,1100.09 973.327,1098.95C974.613,1097.82 975.256,1096.21 975.256,1094.14C975.256,1092.65 974.878,1091.37 974.121,1090.3C973.364,1089.23 972.367,1088.53 971.13,1088.19C970.333,1087.98 968.86,1087.87 966.711,1087.87L957.556,1087.87L957.556,1100.66Z" style="fill:rgb(47,88,220);fill-rule:nonzero;"/>
            <path d="M1013.29,1115.61C1015.49,1117.12 1017.52,1118.23 1019.37,1118.92L1017.98,1122.22C1015.41,1121.29 1012.85,1119.83 1010.29,1117.83C1007.64,1119.31 1004.71,1120.05 1001.5,1120.05C998.262,1120.05 995.324,1119.27 992.688,1117.7C990.051,1116.14 988.021,1113.94 986.596,1111.11C985.172,1108.28 984.46,1105.09 984.46,1101.54C984.46,1098.01 985.176,1094.8 986.609,1091.9C988.041,1089 990.08,1086.8 992.724,1085.28C995.369,1083.77 998.327,1083.01 1001.6,1083.01C1004.9,1083.01 1007.88,1083.8 1010.53,1085.37C1013.19,1086.94 1015.21,1089.14 1016.6,1091.96C1017.99,1094.78 1018.69,1097.97 1018.69,1101.52C1018.69,1104.46 1018.24,1107.11 1017.35,1109.46C1016.45,1111.82 1015.1,1113.86 1013.29,1115.61ZM1002.87,1109.55C1005.6,1110.32 1007.86,1111.45 1009.63,1112.97C1012.41,1110.43 1013.81,1106.61 1013.81,1101.52C1013.81,1098.62 1013.31,1096.09 1012.33,1093.92C1011.34,1091.76 1009.9,1090.08 1008.01,1088.88C1006.11,1087.69 1003.98,1087.09 1001.62,1087.09C998.091,1087.09 995.162,1088.3 992.834,1090.71C990.507,1093.13 989.343,1096.74 989.343,1101.54C989.343,1106.2 990.495,1109.77 992.798,1112.26C995.101,1114.75 998.043,1116 1001.62,1116C1003.32,1116 1004.91,1115.68 1006.41,1115.04C1004.93,1114.08 1003.37,1113.4 1001.72,1112.99L1002.87,1109.55Z" style="fill:rgb(47,88,220);fill-rule:nonzero;"/>
            <path d="M1025.13,1119.44L1025.13,1083.65L1041,1083.65C1044.19,1083.65 1046.62,1083.97 1048.28,1084.61C1049.94,1085.25 1051.27,1086.39 1052.26,1088.02C1053.25,1089.64 1053.75,1091.44 1053.75,1093.41C1053.75,1095.95 1052.92,1098.09 1051.28,1099.83C1049.64,1101.58 1047.1,1102.68 1043.66,1103.15C1044.92,1103.76 1045.87,1104.35 1046.52,1104.94C1047.9,1106.2 1049.21,1107.79 1050.45,1109.7L1056.68,1119.44L1050.72,1119.44L1045.98,1111.99C1044.6,1109.84 1043.46,1108.2 1042.57,1107.06C1041.67,1105.92 1040.87,1105.12 1040.16,1104.67C1039.45,1104.21 1038.73,1103.89 1038,1103.71C1037.46,1103.6 1036.58,1103.54 1035.36,1103.54L1029.87,1103.54L1029.87,1119.44L1025.13,1119.44ZM1029.87,1099.44L1040.05,1099.44C1042.22,1099.44 1043.91,1099.22 1045.13,1098.77C1046.35,1098.32 1047.28,1097.61 1047.91,1096.62C1048.55,1095.64 1048.87,1094.57 1048.87,1093.41C1048.87,1091.72 1048.25,1090.33 1047.02,1089.24C1045.79,1088.15 1043.85,1087.6 1041.2,1087.6L1029.87,1087.6L1029.87,1099.44Z" style="fill:rgb(47,88,220);fill-rule:nonzero;"/>
            <path d="M1059.56,1107.94L1064.03,1107.55C1064.24,1109.34 1064.73,1110.81 1065.5,1111.95C1066.28,1113.1 1067.48,1114.03 1069.1,1114.74C1070.73,1115.45 1072.56,1115.8 1074.6,1115.8C1076.4,1115.8 1078,1115.53 1079.38,1114.99C1080.77,1114.46 1081.8,1113.72 1082.47,1112.79C1083.15,1111.85 1083.48,1110.83 1083.48,1109.72C1083.48,1108.6 1083.16,1107.62 1082.51,1106.78C1081.86,1105.94 1080.78,1105.24 1079.28,1104.67C1078.32,1104.29 1076.2,1103.71 1072.91,1102.92C1069.62,1102.13 1067.32,1101.39 1066,1100.69C1064.29,1099.79 1063.02,1098.68 1062.18,1097.36C1061.34,1096.03 1060.92,1094.54 1060.92,1092.9C1060.92,1091.09 1061.44,1089.4 1062.46,1087.83C1063.49,1086.26 1064.99,1085.07 1066.95,1084.26C1068.92,1083.44 1071.11,1083.04 1073.52,1083.04C1076.18,1083.04 1078.52,1083.46 1080.54,1084.32C1082.57,1085.17 1084.13,1086.43 1085.22,1088.09C1086.31,1089.75 1086.89,1091.63 1086.97,1093.73L1082.43,1094.07C1082.19,1091.81 1081.36,1090.1 1079.96,1088.94C1078.55,1087.79 1076.47,1087.21 1073.72,1087.21C1070.85,1087.21 1068.77,1087.74 1067.46,1088.79C1066.15,1089.84 1065.49,1091.1 1065.49,1092.58C1065.49,1093.87 1065.95,1094.93 1066.88,1095.76C1067.79,1096.59 1070.17,1097.44 1074.02,1098.31C1077.87,1099.18 1080.51,1099.94 1081.95,1100.59C1084.03,1101.55 1085.57,1102.77 1086.56,1104.24C1087.55,1105.71 1088.05,1107.41 1088.05,1109.33C1088.05,1111.24 1087.5,1113.03 1086.41,1114.71C1085.32,1116.4 1083.76,1117.71 1081.71,1118.64C1079.67,1119.58 1077.37,1120.05 1074.82,1120.05C1071.58,1120.05 1068.86,1119.58 1066.67,1118.63C1064.49,1117.69 1062.77,1116.27 1061.52,1114.37C1060.28,1112.48 1059.62,1110.33 1059.56,1107.94Z" style="fill:rgb(47,88,220);fill-rule:nonzero;"/>
            <path d="M1103.62,1119.44L1103.62,1087.87L1091.83,1087.87L1091.83,1083.65L1120.2,1083.65L1120.2,1087.87L1108.36,1087.87L1108.36,1119.44L1103.62,1119.44Z" style="fill:rgb(47,88,220);fill-rule:nonzero;"/>
            <path d="M1148.55,1083.65L1153.28,1083.65L1153.28,1104.33C1153.28,1107.92 1152.88,1110.78 1152.06,1112.89C1151.25,1115.01 1149.78,1116.73 1147.66,1118.06C1145.53,1119.38 1142.75,1120.05 1139.29,1120.05C1135.94,1120.05 1133.2,1119.47 1131.07,1118.32C1128.93,1117.16 1127.41,1115.49 1126.5,1113.3C1125.59,1111.11 1125.13,1108.12 1125.13,1104.33L1125.13,1083.65L1129.87,1083.65L1129.87,1104.3C1129.87,1107.41 1130.16,1109.7 1130.74,1111.17C1131.32,1112.65 1132.31,1113.78 1133.72,1114.58C1135.12,1115.38 1136.85,1115.78 1138.88,1115.78C1142.36,1115.78 1144.84,1114.99 1146.33,1113.41C1147.81,1111.83 1148.55,1108.79 1148.55,1104.3L1148.55,1083.65Z" style="fill:rgb(47,88,220);fill-rule:nonzero;"/>
            <path d="M1171.4,1119.44L1157.53,1083.65L1162.66,1083.65L1171.96,1109.65C1172.71,1111.73 1173.34,1113.68 1173.84,1115.51C1174.39,1113.55 1175.04,1111.6 1175.77,1109.65L1185.44,1083.65L1190.27,1083.65L1176.26,1119.44L1171.4,1119.44Z" style="fill:rgb(47,88,220);fill-rule:nonzero;"/>
            <path d="M1200.77,1119.44L1191.27,1083.65L1196.13,1083.65L1201.57,1107.11C1202.16,1109.57 1202.66,1112.01 1203.09,1114.43C1204,1110.61 1204.54,1108.4 1204.7,1107.82L1211.51,1083.65L1217.22,1083.65L1222.35,1101.76C1223.64,1106.25 1224.56,1110.48 1225.13,1114.43C1225.59,1112.17 1226.18,1109.58 1226.92,1106.64L1232.53,1083.65L1237.29,1083.65L1227.48,1119.44L1222.91,1119.44L1215.37,1092.17C1214.73,1089.89 1214.36,1088.49 1214.25,1087.97C1213.87,1089.61 1213.52,1091.01 1213.2,1092.17L1205.6,1119.44L1200.77,1119.44Z" style="fill:rgb(47,88,220);fill-rule:nonzero;"/>
            <path d="M1238.07,1119.44L1251.92,1100.79L1239.71,1083.65L1245.35,1083.65L1251.84,1092.83C1253.19,1094.73 1254.15,1096.2 1254.72,1097.22C1255.52,1095.92 1256.46,1094.56 1257.56,1093.14L1264.76,1083.65L1269.91,1083.65L1257.34,1100.52L1270.89,1119.44L1265.03,1119.44L1256.02,1106.67C1255.51,1105.94 1254.99,1105.14 1254.45,1104.28C1253.66,1105.58 1253.09,1106.47 1252.75,1106.96L1243.76,1119.44L1238.07,1119.44Z" style="fill:rgb(47,88,220);fill-rule:nonzero;"/>
            <path d="M1285.14,1119.44L1285.14,1104.28L1271.35,1083.65L1277.11,1083.65L1284.17,1094.44C1285.47,1096.46 1286.68,1098.47 1287.81,1100.49C1288.88,1098.62 1290.18,1096.51 1291.71,1094.17L1298.64,1083.65L1304.16,1083.65L1289.88,1104.28L1289.88,1119.44L1285.14,1119.44Z" style="fill:rgb(47,88,220);fill-rule:nonzero;"/>
            <path d="M1305.55,1119.44L1305.55,1115.04L1323.89,1092.12C1325.19,1090.49 1326.43,1089.08 1327.6,1087.87L1307.63,1087.87L1307.63,1083.65L1333.26,1083.65L1333.26,1087.87L1313.17,1112.7L1311,1115.21L1333.85,1115.21L1333.85,1119.44L1305.55,1119.44Z" style="fill:rgb(47,88,220);fill-rule:nonzero;"/>
        </g>
        <g transform="matrix(1,0,0,1,82.9596,-1212.42)">
            <path d="M893.269,1524.13C891.642,1525.52 890.075,1526.49 888.57,1527.06C887.064,1527.63 885.449,1527.92 883.723,1527.92C880.875,1527.92 878.686,1527.22 877.156,1525.83C875.626,1524.44 874.861,1522.66 874.861,1520.49C874.861,1519.23 875.15,1518.07 875.728,1517.02C876.306,1515.96 877.062,1515.12 877.998,1514.49C878.934,1513.85 879.988,1513.37 881.16,1513.05C882.022,1512.82 883.325,1512.6 885.066,1512.39C888.614,1511.97 891.227,1511.46 892.903,1510.88C892.919,1510.27 892.927,1509.89 892.927,1509.73C892.927,1507.94 892.512,1506.68 891.682,1505.94C890.559,1504.95 888.891,1504.45 886.677,1504.45C884.61,1504.45 883.084,1504.82 882.1,1505.54C881.115,1506.27 880.387,1507.55 879.915,1509.39L875.618,1508.8C876.008,1506.96 876.651,1505.48 877.547,1504.34C878.442,1503.21 879.736,1502.34 881.428,1501.73C883.121,1501.12 885.082,1500.82 887.312,1500.82C889.526,1500.82 891.324,1501.08 892.708,1501.6C894.091,1502.12 895.108,1502.77 895.759,1503.56C896.411,1504.35 896.866,1505.35 897.127,1506.55C897.273,1507.3 897.346,1508.65 897.346,1510.61L897.346,1516.47C897.346,1520.55 897.44,1523.13 897.627,1524.22C897.814,1525.3 898.185,1526.34 898.738,1527.33L894.148,1527.33C893.692,1526.42 893.399,1525.35 893.269,1524.13ZM892.903,1514.32C891.308,1514.97 888.915,1515.52 885.725,1515.98C883.919,1516.24 882.641,1516.53 881.892,1516.86C881.144,1517.18 880.566,1517.66 880.159,1518.29C879.752,1518.91 879.549,1519.61 879.549,1520.37C879.549,1521.54 879.992,1522.52 880.879,1523.3C881.766,1524.08 883.064,1524.47 884.773,1524.47C886.466,1524.47 887.971,1524.1 889.29,1523.36C890.608,1522.62 891.577,1521.61 892.195,1520.32C892.667,1519.33 892.903,1517.87 892.903,1515.93L892.903,1514.32Z" style="fill:rgb(47,88,220);fill-rule:nonzero;"/>
            <path d="M908.211,1527.33L904.133,1527.33L904.133,1491.54L908.528,1491.54L908.528,1504.31C910.383,1501.98 912.752,1500.82 915.633,1500.82C917.228,1500.82 918.737,1501.14 920.161,1501.78C921.585,1502.42 922.757,1503.33 923.677,1504.49C924.597,1505.65 925.317,1507.06 925.838,1508.7C926.358,1510.35 926.619,1512.1 926.619,1513.98C926.619,1518.42 925.52,1521.85 923.323,1524.28C921.126,1526.7 918.489,1527.92 915.413,1527.92C912.353,1527.92 909.952,1526.64 908.211,1524.08L908.211,1527.33ZM908.162,1514.17C908.162,1517.28 908.585,1519.53 909.431,1520.91C910.815,1523.17 912.687,1524.3 915.047,1524.3C916.967,1524.3 918.627,1523.47 920.027,1521.8C921.427,1520.13 922.127,1517.65 922.127,1514.34C922.127,1510.96 921.455,1508.46 920.112,1506.85C918.77,1505.24 917.146,1504.43 915.242,1504.43C913.321,1504.43 911.661,1505.26 910.261,1506.93C908.862,1508.6 908.162,1511.01 908.162,1514.17Z" style="fill:rgb(47,88,220);fill-rule:nonzero;"/>
            <path d="M948.884,1517.83L953.206,1518.39C952.734,1521.37 951.525,1523.7 949.58,1525.39C947.635,1527.07 945.247,1527.92 942.415,1527.92C938.867,1527.92 936.014,1526.76 933.858,1524.44C931.701,1522.12 930.623,1518.79 930.623,1514.46C930.623,1511.66 931.087,1509.21 932.014,1507.12C932.942,1505.02 934.354,1503.44 936.25,1502.39C938.146,1501.34 940.209,1500.82 942.439,1500.82C945.255,1500.82 947.558,1501.53 949.348,1502.95C951.139,1504.38 952.286,1506.4 952.791,1509.02L948.518,1509.68C948.111,1507.94 947.391,1506.63 946.358,1505.75C945.324,1504.87 944.075,1504.43 942.61,1504.43C940.397,1504.43 938.598,1505.22 937.215,1506.81C935.831,1508.4 935.139,1510.91 935.139,1514.34C935.139,1517.83 935.807,1520.36 937.141,1521.93C938.476,1523.51 940.217,1524.3 942.366,1524.3C944.091,1524.3 945.532,1523.77 946.687,1522.72C947.843,1521.66 948.575,1520.03 948.884,1517.83Z" style="fill:rgb(47,88,220);fill-rule:nonzero;"/>
            <path d="M973.787,1527.33L973.787,1524.06C972.143,1526.63 969.726,1527.92 966.536,1527.92C964.469,1527.92 962.569,1527.35 960.835,1526.21C959.102,1525.07 957.759,1523.48 956.807,1521.43C955.855,1519.39 955.379,1517.04 955.379,1514.39C955.379,1511.8 955.81,1509.45 956.673,1507.35C957.535,1505.24 958.829,1503.62 960.554,1502.5C962.28,1501.38 964.208,1500.82 966.341,1500.82C967.903,1500.82 969.295,1501.15 970.515,1501.81C971.736,1502.46 972.729,1503.32 973.494,1504.38L973.494,1491.54L977.864,1491.54L977.864,1527.33L973.787,1527.33ZM959.895,1514.39C959.895,1517.71 960.595,1520.19 961.995,1521.84C963.395,1523.48 965.047,1524.3 966.951,1524.3C968.871,1524.3 970.503,1523.52 971.846,1521.95C973.189,1520.38 973.86,1517.98 973.86,1514.76C973.86,1511.21 973.176,1508.61 971.809,1506.94C970.442,1505.28 968.758,1504.45 966.756,1504.45C964.802,1504.45 963.171,1505.25 961.861,1506.85C960.55,1508.44 959.895,1510.96 959.895,1514.39Z" style="fill:rgb(47,88,220);fill-rule:nonzero;"/>
            <path d="M1002.52,1518.98L1007.06,1519.54C1006.35,1522.19 1005.02,1524.25 1003.08,1525.72C1001.15,1527.18 998.673,1527.92 995.662,1527.92C991.869,1527.92 988.862,1526.75 986.641,1524.41C984.419,1522.08 983.308,1518.8 983.308,1514.59C983.308,1510.22 984.431,1506.84 986.677,1504.43C988.924,1502.02 991.837,1500.82 995.418,1500.82C998.884,1500.82 1001.72,1502 1003.91,1504.36C1006.11,1506.72 1007.21,1510.04 1007.21,1514.32C1007.21,1514.58 1007.2,1514.97 1007.19,1515.49L987.849,1515.49C988.012,1518.34 988.818,1520.52 990.266,1522.03C991.715,1523.55 993.522,1524.3 995.686,1524.3C997.298,1524.3 998.673,1523.88 999.812,1523.03C1000.95,1522.19 1001.86,1520.84 1002.52,1518.98ZM988.093,1511.88L1002.57,1511.88C1002.38,1509.69 1001.82,1508.06 1000.91,1506.97C999.511,1505.28 997.696,1504.43 995.466,1504.43C993.448,1504.43 991.751,1505.11 990.376,1506.46C989.001,1507.81 988.24,1509.61 988.093,1511.88Z" style="fill:rgb(47,88,220);fill-rule:nonzero;"/>
            <path d="M1013.63,1527.33L1013.63,1504.82L1009.75,1504.82L1009.75,1501.4L1013.63,1501.4L1013.63,1498.64C1013.63,1496.9 1013.78,1495.61 1014.09,1494.76C1014.52,1493.62 1015.26,1492.7 1016.33,1491.99C1017.39,1491.28 1018.89,1490.93 1020.81,1490.93C1022.05,1490.93 1023.41,1491.08 1024.91,1491.37L1024.25,1495.2C1023.34,1495.04 1022.48,1494.96 1021.66,1494.96C1020.33,1494.96 1019.38,1495.24 1018.83,1495.81C1018.28,1496.38 1018,1497.45 1018,1499.01L1018,1501.4L1023.05,1501.4L1023.05,1504.82L1018,1504.82L1018,1527.33L1013.63,1527.33Z" style="fill:rgb(47,88,220);fill-rule:nonzero;"/>
            <path d="M1025.67,1529.48L1029.94,1530.11C1030.12,1531.43 1030.62,1532.39 1031.43,1532.99C1032.52,1533.81 1034.01,1534.22 1035.9,1534.22C1037.93,1534.22 1039.5,1533.81 1040.61,1532.99C1041.71,1532.18 1042.46,1531.04 1042.85,1529.58C1043.08,1528.68 1043.19,1526.8 1043.17,1523.94C1041.25,1526.2 1038.86,1527.33 1035.99,1527.33C1032.43,1527.33 1029.67,1526.04 1027.72,1523.47C1025.76,1520.9 1024.79,1517.82 1024.79,1514.22C1024.79,1511.75 1025.24,1509.46 1026.13,1507.37C1027.03,1505.28 1028.32,1503.66 1030.03,1502.53C1031.72,1501.39 1033.72,1500.82 1036.02,1500.82C1039.08,1500.82 1041.6,1502.05 1043.59,1504.53L1043.59,1501.4L1047.64,1501.4L1047.64,1523.82C1047.64,1527.85 1047.23,1530.71 1046.41,1532.4C1045.58,1534.08 1044.28,1535.41 1042.5,1536.39C1040.72,1537.36 1038.53,1537.85 1035.92,1537.85C1032.83,1537.85 1030.33,1537.16 1028.42,1535.77C1026.52,1534.37 1025.6,1532.28 1025.67,1529.48ZM1029.3,1513.9C1029.3,1517.3 1029.98,1519.79 1031.33,1521.35C1032.68,1522.91 1034.37,1523.69 1036.41,1523.69C1038.43,1523.69 1040.12,1522.91 1041.49,1521.36C1042.85,1519.81 1043.54,1517.37 1043.54,1514.05C1043.54,1510.88 1042.83,1508.48 1041.43,1506.87C1040.02,1505.26 1038.32,1504.45 1036.34,1504.45C1034.38,1504.45 1032.72,1505.25 1031.36,1506.84C1029.99,1508.42 1029.3,1510.78 1029.3,1513.9Z" style="fill:rgb(47,88,220);fill-rule:nonzero;"/>
            <path d="M1054.28,1527.33L1054.28,1491.54L1058.67,1491.54L1058.67,1504.38C1060.72,1502.01 1063.31,1500.82 1066.44,1500.82C1068.36,1500.82 1070.03,1501.19 1071.44,1501.95C1072.86,1502.71 1073.87,1503.75 1074.48,1505.09C1075.09,1506.42 1075.4,1508.36 1075.4,1510.9L1075.4,1527.33L1071,1527.33L1071,1510.9C1071,1508.7 1070.53,1507.1 1069.58,1506.1C1068.62,1505.1 1067.28,1504.6 1065.54,1504.6C1064.23,1504.6 1063.01,1504.94 1061.86,1505.61C1060.71,1506.29 1059.89,1507.2 1059.41,1508.36C1058.92,1509.52 1058.67,1511.11 1058.67,1513.15L1058.67,1527.33L1054.28,1527.33Z" style="fill:rgb(47,88,220);fill-rule:nonzero;"/>
        </g>
        <g transform="matrix(1,0,0,1,257.835,-1555.59)">
            <path d="M908.1,1841.04L908.1,1835.98L912.494,1835.98L912.494,1841.04L908.1,1841.04ZM908.1,1871.77L908.1,1845.85L912.494,1845.85L912.494,1871.77L908.1,1871.77Z" style="fill:rgb(47,88,220);fill-rule:nonzero;"/>
        </g>
        <g transform="matrix(1,0,0,1,34.9988,-2018.65)">
            <path d="M1143.72,2303.36L1143.72,2298.26L1148.12,2298.26L1148.12,2303.36L1143.72,2303.36ZM1138.16,2344.11L1138.99,2340.37C1139.87,2340.6 1140.56,2340.72 1141.06,2340.72C1141.96,2340.72 1142.62,2340.42 1143.06,2339.82C1143.5,2339.23 1143.72,2337.74 1143.72,2335.37L1143.72,2308.12L1148.12,2308.12L1148.12,2335.47C1148.12,2338.66 1147.7,2340.88 1146.87,2342.13C1145.81,2343.76 1144.06,2344.57 1141.6,2344.57C1140.41,2344.57 1139.26,2344.42 1138.16,2344.11Z" style="fill:rgb(47,88,220);fill-rule:nonzero;"/>
            <path d="M1154.88,2334.05L1154.88,2298.26L1159.27,2298.26L1159.27,2318.67L1169.67,2308.12L1175.36,2308.12L1165.45,2317.74L1176.36,2334.05L1170.94,2334.05L1162.37,2320.79L1159.27,2323.77L1159.27,2334.05L1154.88,2334.05Z" style="fill:rgb(47,88,220);fill-rule:nonzero;"/>
            <rect x="1179.76" y="2298.26" width="4.395" height="35.791" style="fill:rgb(47,88,220);fill-rule:nonzero;"/>
            <path d="M1190.96,2334.05L1190.96,2308.12L1194.89,2308.12L1194.89,2311.76C1195.71,2310.49 1196.79,2309.47 1198.14,2308.7C1199.49,2307.92 1201.03,2307.54 1202.76,2307.54C1204.68,2307.54 1206.25,2307.94 1207.48,2308.73C1208.71,2309.53 1209.58,2310.65 1210.08,2312.08C1212.13,2309.05 1214.8,2307.54 1218.09,2307.54C1220.66,2307.54 1222.64,2308.25 1224.02,2309.67C1225.4,2311.1 1226.1,2313.29 1226.1,2316.25L1226.1,2334.05L1221.73,2334.05L1221.73,2317.72C1221.73,2315.96 1221.58,2314.69 1221.3,2313.92C1221.01,2313.15 1220.5,2312.53 1219.75,2312.05C1219,2311.58 1218.12,2311.35 1217.11,2311.35C1215.29,2311.35 1213.77,2311.95 1212.57,2313.16C1211.37,2314.38 1210.76,2316.32 1210.76,2318.99L1210.76,2334.05L1206.37,2334.05L1206.37,2317.2C1206.37,2315.25 1206.01,2313.79 1205.29,2312.81C1204.58,2311.83 1203.41,2311.35 1201.78,2311.35C1200.54,2311.35 1199.4,2311.67 1198.35,2312.32C1197.3,2312.97 1196.54,2313.93 1196.07,2315.18C1195.59,2316.43 1195.36,2318.24 1195.36,2320.6L1195.36,2334.05L1190.96,2334.05Z" style="fill:rgb(47,88,220);fill-rule:nonzero;"/>
            <path d="M1232.61,2334.05L1232.61,2308.12L1236.57,2308.12L1236.57,2311.81C1238.47,2308.96 1241.22,2307.54 1244.82,2307.54C1246.38,2307.54 1247.82,2307.82 1249.13,2308.38C1250.44,2308.94 1251.42,2309.68 1252.07,2310.59C1252.72,2311.5 1253.18,2312.58 1253.44,2313.84C1253.6,2314.65 1253.68,2316.07 1253.68,2318.11L1253.68,2334.05L1249.29,2334.05L1249.29,2318.28C1249.29,2316.49 1249.12,2315.15 1248.78,2314.26C1248.43,2313.38 1247.83,2312.67 1246.96,2312.14C1246.09,2311.61 1245.07,2311.35 1243.89,2311.35C1242.02,2311.35 1240.41,2311.94 1239.05,2313.13C1237.69,2314.32 1237.01,2316.57 1237.01,2319.89L1237.01,2334.05L1232.61,2334.05Z" style="fill:rgb(47,88,220);fill-rule:nonzero;"/>
            <path d="M1258.79,2321.09C1258.79,2316.28 1260.12,2312.73 1262.79,2310.42C1265.02,2308.5 1267.74,2307.54 1270.94,2307.54C1274.51,2307.54 1277.42,2308.7 1279.68,2311.04C1281.95,2313.38 1283.08,2316.6 1283.08,2320.72C1283.08,2324.06 1282.58,2326.68 1281.58,2328.59C1280.58,2330.51 1279.12,2331.99 1277.21,2333.05C1275.29,2334.11 1273.21,2334.64 1270.94,2334.64C1267.31,2334.64 1264.38,2333.47 1262.14,2331.14C1259.9,2328.82 1258.79,2325.47 1258.79,2321.09ZM1263.3,2321.09C1263.3,2324.41 1264.03,2326.89 1265.48,2328.55C1266.92,2330.2 1268.75,2331.02 1270.94,2331.02C1273.12,2331.02 1274.94,2330.19 1276.39,2328.53C1277.84,2326.87 1278.56,2324.34 1278.56,2320.94C1278.56,2317.73 1277.83,2315.3 1276.38,2313.65C1274.92,2312 1273.11,2311.18 1270.94,2311.18C1268.75,2311.18 1266.92,2312 1265.48,2313.64C1264.03,2315.28 1263.3,2317.77 1263.3,2321.09Z" style="fill:rgb(47,88,220);fill-rule:nonzero;"/>
            <path d="M1288.23,2343.99L1288.23,2308.12L1292.23,2308.12L1292.23,2311.49C1293.18,2310.17 1294.24,2309.18 1295.43,2308.53C1296.62,2307.87 1298.06,2307.54 1299.75,2307.54C1301.97,2307.54 1303.92,2308.11 1305.61,2309.25C1307.3,2310.39 1308.58,2311.99 1309.44,2314.07C1310.31,2316.14 1310.74,2318.42 1310.74,2320.89C1310.74,2323.54 1310.26,2325.93 1309.31,2328.06C1308.36,2330.18 1306.98,2331.81 1305.16,2332.94C1303.35,2334.07 1301.44,2334.64 1299.43,2334.64C1297.97,2334.64 1296.66,2334.33 1295.49,2333.71C1294.33,2333.09 1293.37,2332.31 1292.62,2331.37L1292.62,2343.99L1288.23,2343.99ZM1292.21,2321.23C1292.21,2324.57 1292.88,2327.04 1294.24,2328.63C1295.59,2330.23 1297.22,2331.02 1299.14,2331.02C1301.1,2331.02 1302.77,2330.2 1304.16,2328.55C1305.55,2326.89 1306.25,2324.33 1306.25,2320.87C1306.25,2317.56 1305.57,2315.09 1304.21,2313.45C1302.85,2311.8 1301.23,2310.98 1299.34,2310.98C1297.46,2310.98 1295.81,2311.85 1294.37,2313.6C1292.93,2315.35 1292.21,2317.9 1292.21,2321.23Z" style="fill:rgb(47,88,220);fill-rule:nonzero;"/>
            <path d="M1332.57,2343.99L1332.57,2331.29C1331.88,2332.25 1330.92,2333.05 1329.7,2333.68C1328.47,2334.32 1327.16,2334.64 1325.78,2334.64C1322.7,2334.64 1320.05,2333.41 1317.83,2330.95C1315.61,2328.49 1314.5,2325.12 1314.5,2320.84C1314.5,2318.24 1314.95,2315.9 1315.85,2313.84C1316.76,2311.77 1318.07,2310.2 1319.78,2309.14C1321.5,2308.07 1323.38,2307.54 1325.44,2307.54C1328.64,2307.54 1331.16,2308.89 1333,2311.59L1333,2308.12L1336.96,2308.12L1336.96,2343.99L1332.57,2343.99ZM1319.02,2321.01C1319.02,2324.35 1319.71,2326.85 1321.12,2328.52C1322.51,2330.19 1324.19,2331.02 1326.14,2331.02C1328.02,2331.02 1329.63,2330.23 1330.98,2328.64C1332.33,2327.06 1333,2324.64 1333,2321.4C1333,2317.95 1332.29,2315.36 1330.87,2313.62C1329.44,2311.87 1327.77,2311 1325.85,2311C1323.95,2311 1322.33,2311.81 1321.01,2313.43C1319.68,2315.05 1319.02,2317.58 1319.02,2321.01Z" style="fill:rgb(47,88,220);fill-rule:nonzero;"/>
            <path d="M1343.8,2334.05L1343.8,2308.12L1347.75,2308.12L1347.75,2312.05C1348.76,2310.21 1349.69,2309 1350.55,2308.42C1351.4,2307.83 1352.34,2307.54 1353.37,2307.54C1354.85,2307.54 1356.35,2308.01 1357.88,2308.95L1356.37,2313.03C1355.29,2312.39 1354.22,2312.08 1353.15,2312.08C1352.18,2312.08 1351.32,2312.37 1350.56,2312.95C1349.79,2313.52 1349.25,2314.32 1348.92,2315.35C1348.43,2316.91 1348.19,2318.62 1348.19,2320.48L1348.19,2334.05L1343.8,2334.05Z" style="fill:rgb(47,88,220);fill-rule:nonzero;"/>
            <path d="M1358.74,2326.31L1363.08,2325.63C1363.33,2327.37 1364.01,2328.7 1365.12,2329.63C1366.24,2330.56 1367.79,2331.02 1369.8,2331.02C1371.81,2331.02 1373.31,2330.61 1374.29,2329.79C1375.27,2328.97 1375.75,2328 1375.75,2326.9C1375.75,2325.9 1375.32,2325.12 1374.46,2324.55C1373.86,2324.16 1372.36,2323.67 1369.97,2323.06C1366.74,2322.25 1364.51,2321.55 1363.27,2320.95C1362.02,2320.36 1361.08,2319.54 1360.43,2318.49C1359.79,2317.44 1359.47,2316.28 1359.47,2315.01C1359.47,2313.85 1359.73,2312.78 1360.26,2311.8C1360.79,2310.81 1361.51,2309.99 1362.42,2309.34C1363.11,2308.84 1364.04,2308.41 1365.22,2308.06C1366.4,2307.71 1367.66,2307.54 1369.02,2307.54C1371.05,2307.54 1372.84,2307.83 1374.37,2308.42C1375.91,2309 1377.05,2309.8 1377.78,2310.8C1378.51,2311.8 1379.02,2313.14 1379.29,2314.81L1375,2315.4C1374.8,2314.06 1374.24,2313.02 1373.3,2312.27C1372.36,2311.52 1371.04,2311.15 1369.33,2311.15C1367.31,2311.15 1365.87,2311.48 1365.01,2312.15C1364.15,2312.82 1363.72,2313.6 1363.72,2314.49C1363.72,2315.07 1363.9,2315.58 1364.25,2316.03C1364.61,2316.51 1365.17,2316.9 1365.94,2317.2C1366.38,2317.37 1367.67,2317.74 1369.82,2318.33C1372.93,2319.16 1375.1,2319.84 1376.33,2320.37C1377.56,2320.89 1378.52,2321.66 1379.22,2322.67C1379.92,2323.68 1380.27,2324.94 1380.27,2326.43C1380.27,2327.9 1379.84,2329.28 1378.99,2330.57C1378.13,2331.87 1376.9,2332.87 1375.29,2333.57C1373.68,2334.28 1371.86,2334.64 1369.82,2334.64C1366.45,2334.64 1363.88,2333.94 1362.12,2332.54C1360.35,2331.14 1359.23,2329.06 1358.74,2326.31Z" style="fill:rgb(47,88,220);fill-rule:nonzero;"/>
            <path d="M1395.09,2330.12L1395.72,2334C1394.49,2334.26 1393.38,2334.39 1392.4,2334.39C1390.81,2334.39 1389.57,2334.14 1388.69,2333.64C1387.81,2333.13 1387.19,2332.47 1386.84,2331.65C1386.48,2330.82 1386.3,2329.09 1386.3,2326.46L1386.3,2311.54L1383.08,2311.54L1383.08,2308.12L1386.3,2308.12L1386.3,2301.7L1390.67,2299.07L1390.67,2308.12L1395.09,2308.12L1395.09,2311.54L1390.67,2311.54L1390.67,2326.7C1390.67,2327.95 1390.75,2328.76 1390.9,2329.12C1391.06,2329.48 1391.31,2329.76 1391.66,2329.97C1392.01,2330.18 1392.51,2330.29 1393.16,2330.29C1393.65,2330.29 1394.29,2330.23 1395.09,2330.12Z" style="fill:rgb(47,88,220);fill-rule:nonzero;"/>
            <path d="M1416.38,2334.05L1416.38,2330.24C1414.36,2333.17 1411.62,2334.64 1408.15,2334.64C1406.62,2334.64 1405.19,2334.34 1403.87,2333.76C1402.54,2333.17 1401.56,2332.43 1400.91,2331.55C1400.27,2330.66 1399.82,2329.58 1399.56,2328.29C1399.38,2327.43 1399.29,2326.06 1399.29,2324.19L1399.29,2308.12L1403.68,2308.12L1403.68,2322.5C1403.68,2324.8 1403.77,2326.34 1403.95,2327.14C1404.23,2328.3 1404.81,2329.2 1405.71,2329.86C1406.6,2330.52 1407.71,2330.85 1409.03,2330.85C1410.35,2330.85 1411.59,2330.51 1412.74,2329.84C1413.9,2329.16 1414.71,2328.24 1415.19,2327.08C1415.67,2325.92 1415.91,2324.23 1415.91,2322.01L1415.91,2308.12L1420.31,2308.12L1420.31,2334.05L1416.38,2334.05Z" style="fill:rgb(47,88,220);fill-rule:nonzero;"/>
            <path d="M1434.4,2334.05L1424.53,2308.12L1429.17,2308.12L1434.74,2323.65C1435.34,2325.33 1435.89,2327.07 1436.4,2328.88C1436.79,2327.51 1437.33,2325.86 1438.03,2323.94L1443.8,2308.12L1448.31,2308.12L1438.5,2334.05L1434.4,2334.05Z" style="fill:rgb(47,88,220);fill-rule:nonzero;"/>
            <path d="M1456.98,2334.05L1449.04,2308.12L1453.59,2308.12L1457.71,2323.09L1459.25,2328.66C1459.31,2328.38 1459.76,2326.6 1460.59,2323.31L1464.72,2308.12L1469.24,2308.12L1473.12,2323.16L1474.41,2328.12L1475.9,2323.11L1480.34,2308.12L1484.62,2308.12L1476.51,2334.05L1471.94,2334.05L1467.82,2318.52L1466.82,2314.1L1461.57,2334.05L1456.98,2334.05Z" style="fill:rgb(47,88,220);fill-rule:nonzero;"/>
            <path d="M1485.37,2334.05L1494.85,2320.57L1486.08,2308.12L1491.57,2308.12L1495.55,2314.2C1496.3,2315.36 1496.9,2316.33 1497.36,2317.11C1498.08,2316.03 1498.74,2315.08 1499.34,2314.25L1503.71,2308.12L1508.96,2308.12L1500,2320.33L1509.64,2334.05L1504.24,2334.05L1498.92,2325.99L1497.51,2323.82L1490.69,2334.05L1485.37,2334.05Z" style="fill:rgb(47,88,220);fill-rule:nonzero;"/>
            <path d="M1513.11,2344.04L1512.62,2339.91C1513.58,2340.17 1514.42,2340.3 1515.13,2340.3C1516.11,2340.3 1516.89,2340.14 1517.48,2339.81C1518.06,2339.49 1518.54,2339.03 1518.92,2338.45C1519.19,2338.01 1519.64,2336.91 1520.26,2335.17C1520.34,2334.93 1520.47,2334.57 1520.65,2334.1L1510.81,2308.12L1515.55,2308.12L1520.94,2323.14C1521.64,2325.04 1522.27,2327.04 1522.82,2329.14C1523.33,2327.12 1523.93,2325.16 1524.63,2323.24L1530.17,2308.12L1534.57,2308.12L1524.7,2334.49C1523.64,2337.34 1522.82,2339.3 1522.24,2340.37C1521.46,2341.82 1520.56,2342.88 1519.55,2343.56C1518.54,2344.24 1517.34,2344.57 1515.94,2344.57C1515.09,2344.57 1514.15,2344.39 1513.11,2344.04Z" style="fill:rgb(47,88,220);fill-rule:nonzero;"/>
            <path d="M1535.98,2334.05L1535.98,2330.49L1552.49,2311.54C1550.62,2311.64 1548.96,2311.69 1547.53,2311.69L1536.96,2311.69L1536.96,2308.12L1558.15,2308.12L1558.15,2311.03L1544.11,2327.48L1541.4,2330.49C1543.37,2330.34 1545.22,2330.27 1546.94,2330.27L1558.93,2330.27L1558.93,2334.05L1535.98,2334.05Z" style="fill:rgb(47,88,220);fill-rule:nonzero;"/>
        </g>
    </g>
</svg>
